solid ascii
  facet normal 0.000000e+000 -9.961947e-001 -8.715580e-002
    outer loop
      vertex   2.012500e+001 2.744213e+000 2.760862e+001
      vertex   -2.987500e+001 2.918525e+000 2.561623e+001
      vertex   7.012500e+001 2.918525e+000 2.561623e+001
    endloop
  endfacet
  facet normal 4.750226e-009 -9.961947e-001 -8.715568e-002
    outer loop
      vertex   2.012500e+001 2.744213e+000 2.760862e+001
      vertex   7.012500e+001 2.918525e+000 2.561623e+001
      vertex   7.012500e+001 2.569902e+000 2.960101e+001
    endloop
  endfacet
  facet normal 0.000000e+000 8.715629e-002 -9.961947e-001
    outer loop
      vertex   2.012500e+001 4.113958e+000 2.572082e+001
      vertex   -2.987500e+001 2.918525e+000 2.561623e+001
      vertex   -2.987500e+001 5.309392e+000 2.582541e+001
    endloop
  endfacet
  facet normal 0.000000e+000 8.715629e-002 -9.961947e-001
    outer loop
      vertex   2.012500e+001 4.113958e+000 2.572082e+001
      vertex   7.012500e+001 2.918525e+000 2.561623e+001
      vertex   -2.987500e+001 2.918525e+000 2.561623e+001
    endloop
  endfacet
  facet normal -4.750226e-009 -9.961947e-001 -8.715569e-002
    outer loop
      vertex   2.012500e+001 2.744213e+000 2.760862e+001
      vertex   -2.987500e+001 2.569902e+000 2.960101e+001
      vertex   -2.987500e+001 2.918525e+000 2.561623e+001
    endloop
  endfacet
  facet normal 0.000000e+000 8.715630e-002 -9.961947e-001
    outer loop
      vertex   2.012500e+001 4.113958e+000 2.572082e+001
      vertex   7.012500e+001 5.309392e+000 2.582541e+001
      vertex   7.012500e+001 2.918525e+000 2.561623e+001
    endloop
  endfacet
  facet normal 1.000000e+000 0.000000e+000 -0.000000e+000
    outer loop
      vertex   7.012500e+001 2.569902e+000 2.960101e+001
      vertex   7.012500e+001 2.918525e+000 2.561623e+001
      vertex   7.012500e+001 5.309392e+000 2.582541e+001
    endloop
  endfacet
  facet normal -1.000000e+000 -0.000000e+000 0.000000e+000
    outer loop
      vertex   -2.987500e+001 2.569902e+000 2.960101e+001
      vertex   -2.987500e+001 5.309392e+000 2.582541e+001
      vertex   -2.987500e+001 2.918525e+000 2.561623e+001
    endloop
  endfacet
  facet normal 0.000000e+000 8.715629e-002 -9.961947e-001
    outer loop
      vertex   2.012500e+001 4.113958e+000 2.572082e+001
      vertex   -2.987500e+001 5.309392e+000 2.582541e+001
      vertex   7.012500e+001 5.309392e+000 2.582541e+001
    endloop
  endfacet
  facet normal 1.000000e+000 -0.000000e+000 0.000000e+000
    outer loop
      vertex   7.012500e+001 4.960769e+000 2.981018e+001
      vertex   7.012500e+001 2.569902e+000 2.960101e+001
      vertex   7.012500e+001 5.309392e+000 2.582541e+001
    endloop
  endfacet
  facet normal 0.000000e+000 9.961947e-001 8.715557e-002
    outer loop
      vertex   2.012500e+001 5.135081e+000 2.781779e+001
      vertex   7.012500e+001 5.309392e+000 2.582541e+001
      vertex   -2.987500e+001 5.309392e+000 2.582541e+001
    endloop
  endfacet
  facet normal -6.412590e-009 9.961947e-001 8.715573e-002
    outer loop
      vertex   2.012500e+001 5.135081e+000 2.781779e+001
      vertex   -2.987500e+001 5.309392e+000 2.582541e+001
      vertex   -2.987500e+001 4.960769e+000 2.981018e+001
    endloop
  endfacet
  facet normal 6.412590e-009 9.961947e-001 8.715572e-002
    outer loop
      vertex   2.012500e+001 5.135081e+000 2.781779e+001
      vertex   7.012500e+001 4.960769e+000 2.981018e+001
      vertex   7.012500e+001 5.309392e+000 2.582541e+001
    endloop
  endfacet
  facet normal -1.000000e+000 0.000000e+000 0.000000e+000
    outer loop
      vertex   -2.987500e+001 4.960769e+000 2.981018e+001
      vertex   -2.987500e+001 5.309392e+000 2.582541e+001
      vertex   -2.987500e+001 2.569902e+000 2.960101e+001
    endloop
  endfacet
  facet normal -0.000000e+000 -9.961947e-001 -8.715557e-002
    outer loop
      vertex   2.012500e+001 2.744213e+000 2.760862e+001
      vertex   7.012500e+001 2.569902e+000 2.960101e+001
      vertex   -2.987500e+001 2.569902e+000 2.960101e+001
    endloop
  endfacet
  facet normal -0.000000e+000 9.961947e-001 8.715589e-002
    outer loop
      vertex   2.012500e+001 5.135081e+000 2.781779e+001
      vertex   -2.987500e+001 4.960769e+000 2.981018e+001
      vertex   7.012500e+001 4.960769e+000 2.981018e+001
    endloop
  endfacet
  facet normal -9.500452e-009 -9.961947e-001 -8.715562e-002
    outer loop
      vertex   2.012500e+001 -1.247388e+001 2.898752e+001
      vertex   7.012500e+001 -1.241287e+001 2.829019e+001
      vertex   7.012500e+001 -1.253488e+001 2.968486e+001
    endloop
  endfacet
  facet normal 0.000000e+000 8.715568e-002 -9.961947e-001
    outer loop
      vertex   2.012500e+001 -4.921482e+000 2.894560e+001
      vertex   -2.987500e+001 -1.241287e+001 2.829019e+001
      vertex   -2.987500e+001 2.569902e+000 2.960101e+001
    endloop
  endfacet
  facet normal 1.000000e+000 0.000000e+000 0.000000e+000
    outer loop
      vertex   7.012500e+001 2.569902e+000 2.960101e+001
      vertex   7.012500e+001 -1.253488e+001 2.968486e+001
      vertex   7.012500e+001 -1.241287e+001 2.829019e+001
    endloop
  endfacet
  facet normal 9.500453e-009 -9.961947e-001 -8.715563e-002
    outer loop
      vertex   2.012500e+001 -1.247388e+001 2.898752e+001
      vertex   -2.987500e+001 -1.253488e+001 2.968486e+001
      vertex   -2.987500e+001 -1.241287e+001 2.829019e+001
    endloop
  endfacet
  facet normal 0.000000e+000 -9.961948e-001 -8.715495e-002
    outer loop
      vertex   2.012500e+001 -1.247388e+001 2.898752e+001
      vertex   -2.987500e+001 -1.241287e+001 2.829019e+001
      vertex   7.012500e+001 -1.241287e+001 2.829019e+001
    endloop
  endfacet
  facet normal 0.000000e+000 8.715568e-002 -9.961947e-001
    outer loop
      vertex   2.012500e+001 -4.921482e+000 2.894560e+001
      vertex   7.012500e+001 -1.241287e+001 2.829019e+001
      vertex   -2.987500e+001 -1.241287e+001 2.829019e+001
    endloop
  endfacet
  facet normal 8.311813e-010 8.715569e-002 -9.961947e-001
    outer loop
      vertex   2.012500e+001 -4.921482e+000 2.894560e+001
      vertex   7.012500e+001 2.569902e+000 2.960101e+001
      vertex   7.012500e+001 -1.241287e+001 2.829019e+001
    endloop
  endfacet
  facet normal -1.000000e+000 0.000000e+000 0.000000e+000
    outer loop
      vertex   -2.987500e+001 2.569902e+000 2.960101e+001
      vertex   -2.987500e+001 -1.241287e+001 2.829019e+001
      vertex   -2.987500e+001 -1.253488e+001 2.968486e+001
    endloop
  endfacet
  facet normal 0.000000e+000 8.715568e-002 -9.961947e-001
    outer loop
      vertex   2.012500e+001 -4.921482e+000 2.894560e+001
      vertex   -2.987500e+001 2.569902e+000 2.960101e+001
      vertex   7.012500e+001 2.569902e+000 2.960101e+001
    endloop
  endfacet
  facet normal -0.000000e+000 -9.961947e-001 -8.715630e-002
    outer loop
      vertex   2.012500e+001 -1.247388e+001 2.898752e+001
      vertex   7.012500e+001 -1.253488e+001 2.968486e+001
      vertex   -2.987500e+001 -1.253488e+001 2.968486e+001
    endloop
  endfacet
  facet normal 1.000000e+000 -0.000000e+000 0.000000e+000
    outer loop
      vertex   7.012500e+001 4.960769e+000 2.981018e+001
      vertex   7.012500e+001 -1.253488e+001 2.968486e+001
      vertex   7.012500e+001 2.569902e+000 2.960101e+001
    endloop
  endfacet
  facet normal -1.000000e+000 0.000000e+000 0.000000e+000
    outer loop
      vertex   -2.987500e+001 4.960769e+000 2.981018e+001
      vertex   -2.987500e+001 2.569902e+000 2.960101e+001
      vertex   -2.987500e+001 -1.253488e+001 2.968486e+001
    endloop
  endfacet
  facet normal 1.956585e-006 -8.715220e-002 9.961950e-001
    outer loop
      vertex   7.012500e+001 -1.253488e+001 2.968486e+001
      vertex   1.460221e+001 1.856584e+001 3.240582e+001
      vertex   1.453454e+001 1.831425e+001 3.238381e+001
    endloop
  endfacet
  facet normal 1.076484e-005 -8.717116e-002 9.961934e-001
    outer loop
      vertex   1.338547e+001 1.735373e+001 3.229977e+001
      vertex   1.312500e+001 1.733103e+001 3.229779e+001
      vertex   -2.987500e+001 -1.253488e+001 2.968486e+001
    endloop
  endfacet
  facet normal -8.364478e-006 -8.714382e-002 9.961957e-001
    outer loop
      vertex   1.312500e+001 1.733103e+001 3.229779e+001
      vertex   1.286452e+001 1.735373e+001 3.229977e+001
      vertex   -2.987500e+001 -1.253488e+001 2.968486e+001
    endloop
  endfacet
  facet normal -1.554121e-006 -8.715349e-002 9.961948e-001
    outer loop
      vertex   1.286452e+001 1.735373e+001 3.229977e+001
      vertex   1.261197e+001 1.742115e+001 3.230567e+001
      vertex   -2.987500e+001 -1.253488e+001 2.968486e+001
    endloop
  endfacet
  facet normal -4.022945e-006 -8.715012e-002 9.961952e-001
    outer loop
      vertex   1.237500e+001 1.753123e+001 3.231530e+001
      vertex   1.216082e+001 1.768063e+001 3.232837e+001
      vertex   -2.987500e+001 -1.253488e+001 2.968486e+001
    endloop
  endfacet
  facet normal 3.238389e-006 -8.714988e-002 9.961953e-001
    outer loop
      vertex   7.012500e+001 -1.253488e+001 2.968486e+001
      vertex   1.442404e+001 1.807818e+001 3.236316e+001
      vertex   1.427406e+001 1.786481e+001 3.234449e+001
    endloop
  endfacet
  facet normal 3.299407e-006 -8.716033e-002 9.961943e-001
    outer loop
      vertex   1.261197e+001 1.742115e+001 3.230567e+001
      vertex   1.237500e+001 1.753123e+001 3.231530e+001
      vertex   -2.987500e+001 -1.253488e+001 2.968486e+001
    endloop
  endfacet
  facet normal 7.912240e-007 -8.715439e-002 9.961948e-001
    outer loop
      vertex   7.012500e+001 -1.253488e+001 2.968486e+001
      vertex   1.462500e+001 1.982152e+001 3.251568e+001
      vertex   1.462500e+001 1.882532e+001 3.242852e+001
    endloop
  endfacet
  facet normal 4.792591e-008 -8.715574e-002 9.961947e-001
    outer loop
      vertex   1.216082e+001 1.768063e+001 3.232837e+001
      vertex   -2.987500e+001 1.982152e+001 3.251568e+001
      vertex   -2.987500e+001 -1.253488e+001 2.968486e+001
    endloop
  endfacet
  facet normal 3.496860e-006 -8.716071e-002 9.961942e-001
    outer loop
      vertex   1.363803e+001 1.742115e+001 3.230567e+001
      vertex   1.338547e+001 1.735373e+001 3.229977e+001
      vertex   -2.987500e+001 -1.253488e+001 2.968486e+001
    endloop
  endfacet
  facet normal -1.682864e-005 -8.713143e-002 9.961968e-001
    outer loop
      vertex   1.387500e+001 1.753123e+001 3.231530e+001
      vertex   1.363803e+001 1.742115e+001 3.230567e+001
      vertex   -2.987500e+001 -1.253488e+001 2.968486e+001
    endloop
  endfacet
  facet normal -6.994872e-006 -8.716806e-002 9.961936e-001
    outer loop
      vertex   7.012500e+001 -1.253488e+001 2.968486e+001
      vertex   1.462500e+001 1.882532e+001 3.242852e+001
      vertex   1.460221e+001 1.856584e+001 3.240582e+001
    endloop
  endfacet
  facet normal 1.036553e-006 -8.715386e-002 9.961949e-001
    outer loop
      vertex   7.012500e+001 -1.253488e+001 2.968486e+001
      vertex   1.453454e+001 1.831425e+001 3.238381e+001
      vertex   1.442404e+001 1.807818e+001 3.236316e+001
    endloop
  endfacet
  facet normal 1.000000e+000 0.000000e+000 0.000000e+000
    outer loop
      vertex   7.012500e+001 1.982152e+001 3.251568e+001
      vertex   7.012500e+001 -1.253488e+001 2.968486e+001
      vertex   7.012500e+001 1.994354e+001 3.112101e+001
    endloop
  endfacet
  facet normal 1.000000e+000 0.000000e+000 0.000000e+000
    outer loop
      vertex   7.012500e+001 1.994354e+001 3.112101e+001
      vertex   7.012500e+001 -1.253488e+001 2.968486e+001
      vertex   7.012500e+001 4.960769e+000 2.981018e+001
    endloop
  endfacet
  facet normal 3.456072e-006 -8.714930e-002 9.961953e-001
    outer loop
      vertex   7.012500e+001 -1.253488e+001 2.968486e+001
      vertex   1.408918e+001 1.768063e+001 3.232837e+001
      vertex   1.387500e+001 1.753123e+001 3.231530e+001
    endloop
  endfacet
  facet normal -6.323624e-006 -8.716731e-002 9.961937e-001
    outer loop
      vertex   7.012500e+001 -1.253488e+001 2.968486e+001
      vertex   1.427406e+001 1.786481e+001 3.234449e+001
      vertex   1.408918e+001 1.768063e+001 3.232837e+001
    endloop
  endfacet
  facet normal 0.000000e+000 -8.715573e-002 9.961947e-001
    outer loop
      vertex   7.012500e+001 -1.253488e+001 2.968486e+001
      vertex   1.387500e+001 1.753123e+001 3.231530e+001
      vertex   -2.987500e+001 -1.253488e+001 2.968486e+001
    endloop
  endfacet
  facet normal -1.000000e+000 -0.000000e+000 0.000000e+000
    outer loop
      vertex   -2.987500e+001 1.994354e+001 3.112101e+001
      vertex   -2.987500e+001 4.960769e+000 2.981018e+001
      vertex   -2.987500e+001 -1.253488e+001 2.968486e+001
    endloop
  endfacet
  facet normal -1.000000e+000 -0.000000e+000 0.000000e+000
    outer loop
      vertex   -2.987500e+001 1.982152e+001 3.251568e+001
      vertex   -2.987500e+001 1.994354e+001 3.112101e+001
      vertex   -2.987500e+001 -1.253488e+001 2.968486e+001
    endloop
  endfacet
  facet normal 0.000000e+000 -8.715573e-002 9.961947e-001
    outer loop
      vertex   7.012500e+001 1.982152e+001 3.251568e+001
      vertex   1.462500e+001 1.982152e+001 3.251568e+001
      vertex   7.012500e+001 -1.253488e+001 2.968486e+001
    endloop
  endfacet
  facet normal 2.123192e-006 8.714856e-002 -9.961953e-001
    outer loop
      vertex   1.312500e+001 1.745305e+001 3.090312e+001
      vertex   -2.987500e+001 4.960769e+000 2.981018e+001
      vertex   1.286452e+001 1.747575e+001 3.090510e+001
    endloop
  endfacet
  facet normal 1.249444e-007 8.715628e-002 -9.961947e-001
    outer loop
      vertex   7.012500e+001 4.960769e+000 2.981018e+001
      vertex   1.462500e+001 1.894734e+001 3.103385e+001
      vertex   1.462500e+001 1.994354e+001 3.112101e+001
    endloop
  endfacet
  facet normal -3.943174e-006 8.716928e-002 -9.961936e-001
    outer loop
      vertex   1.338547e+001 1.747575e+001 3.090510e+001
      vertex   -2.987500e+001 4.960769e+000 2.981018e+001
      vertex   1.312500e+001 1.745305e+001 3.090312e+001
    endloop
  endfacet
  facet normal -5.231079e-007 8.715361e-002 -9.961948e-001
    outer loop
      vertex   7.012500e+001 4.960769e+000 2.981018e+001
      vertex   1.442404e+001 1.820020e+001 3.096848e+001
      vertex   1.453454e+001 1.843626e+001 3.098914e+001
    endloop
  endfacet
  facet normal -1.020112e-008 8.715582e-002 -9.961947e-001
    outer loop
      vertex   1.197593e+001 1.798683e+001 3.094982e+001
      vertex   -2.987500e+001 4.960769e+000 2.981018e+001
      vertex   -2.987500e+001 1.994354e+001 3.112101e+001
    endloop
  endfacet
  facet normal 6.937938e-005 8.691775e-002 -9.962155e-001
    outer loop
      vertex   1.363803e+001 1.754317e+001 3.091100e+001
      vertex   -2.987500e+001 4.960769e+000 2.981018e+001
      vertex   1.338547e+001 1.747575e+001 3.090510e+001
    endloop
  endfacet
  facet normal -4.087105e-007 8.715418e-002 -9.961948e-001
    outer loop
      vertex   7.012500e+001 4.960769e+000 2.981018e+001
      vertex   1.460221e+001 1.868786e+001 3.101115e+001
      vertex   1.462500e+001 1.894734e+001 3.103385e+001
    endloop
  endfacet
  facet normal -6.239640e-007 8.715308e-002 -9.961950e-001
    outer loop
      vertex   7.012500e+001 4.960769e+000 2.981018e+001
      vertex   1.363803e+001 1.754317e+001 3.091100e+001
      vertex   1.387500e+001 1.765325e+001 3.092063e+001
    endloop
  endfacet
  facet normal -2.805356e-006 8.716526e-002 -9.961938e-001
    outer loop
      vertex   1.286452e+001 1.747575e+001 3.090510e+001
      vertex   -2.987500e+001 4.960769e+000 2.981018e+001
      vertex   1.261197e+001 1.754317e+001 3.091100e+001
    endloop
  endfacet
  facet normal 7.495230e-007 8.715335e-002 -9.961949e-001
    outer loop
      vertex   1.261197e+001 1.754317e+001 3.091100e+001
      vertex   -2.987500e+001 4.960769e+000 2.981018e+001
      vertex   1.237500e+001 1.765325e+001 3.092063e+001
    endloop
  endfacet
  facet normal 0.000000e+000 8.715586e-002 -9.961947e-001
    outer loop
      vertex   7.012500e+001 4.960769e+000 2.981018e+001
      vertex   -2.987500e+001 4.960769e+000 2.981018e+001
      vertex   1.363803e+001 1.754317e+001 3.091100e+001
    endloop
  endfacet
  facet normal 1.348955e-007 8.715636e-002 -9.961947e-001
    outer loop
      vertex   7.012500e+001 4.960769e+000 2.981018e+001
      vertex   1.427406e+001 1.798683e+001 3.094982e+001
      vertex   1.442404e+001 1.820020e+001 3.096848e+001
    endloop
  endfacet
  facet normal 2.037943e-007 8.715672e-002 -9.961946e-001
    outer loop
      vertex   7.012500e+001 4.960769e+000 2.981018e+001
      vertex   1.387500e+001 1.765325e+001 3.092063e+001
      vertex   1.408918e+001 1.780265e+001 3.093370e+001
    endloop
  endfacet
  facet normal 0.000000e+000 8.715582e-002 -9.961947e-001
    outer loop
      vertex   7.012500e+001 1.994354e+001 3.112101e+001
      vertex   7.012500e+001 4.960769e+000 2.981018e+001
      vertex   1.462500e+001 1.994354e+001 3.112101e+001
    endloop
  endfacet
  facet normal -2.509959e-007 8.715665e-002 -9.961946e-001
    outer loop
      vertex   1.237500e+001 1.765325e+001 3.092063e+001
      vertex   -2.987500e+001 4.960769e+000 2.981018e+001
      vertex   1.216082e+001 1.780265e+001 3.093370e+001
    endloop
  endfacet
  facet normal 8.493458e-007 8.715307e-002 -9.961949e-001
    outer loop
      vertex   1.216082e+001 1.780265e+001 3.093370e+001
      vertex   -2.987500e+001 4.960769e+000 2.981018e+001
      vertex   1.197593e+001 1.798683e+001 3.094982e+001
    endloop
  endfacet
  facet normal -6.768331e-007 8.715291e-002 -9.961949e-001
    outer loop
      vertex   7.012500e+001 4.960769e+000 2.981018e+001
      vertex   1.408918e+001 1.780265e+001 3.093370e+001
      vertex   1.427406e+001 1.798683e+001 3.094982e+001
    endloop
  endfacet
  facet normal 7.839589e-007 8.715896e-002 -9.961944e-001
    outer loop
      vertex   7.012500e+001 4.960769e+000 2.981018e+001
      vertex   1.453454e+001 1.843626e+001 3.098914e+001
      vertex   1.460221e+001 1.868786e+001 3.101115e+001
    endloop
  endfacet
  facet normal 8.716127e-002 9.924033e-001 8.682454e-002
    outer loop
      vertex   1.299476e+001 1.740339e+001 3.160145e+001
      vertex   1.312500e+001 1.745305e+001 3.090312e+001
      vertex   1.286452e+001 1.747575e+001 3.090510e+001
    endloop
  endfacet
  facet normal 8.715376e-002 9.924042e-001 8.682320e-002
    outer loop
      vertex   1.299476e+001 1.740339e+001 3.160145e+001
      vertex   1.312500e+001 1.733103e+001 3.229779e+001
      vertex   1.312500e+001 1.745305e+001 3.090312e+001
    endloop
  endfacet
  facet normal -8.715437e-002 9.924040e-001 8.682319e-002
    outer loop
      vertex   1.325523e+001 1.740339e+001 3.160145e+001
      vertex   1.312500e+001 1.745305e+001 3.090312e+001
      vertex   1.312500e+001 1.733103e+001 3.229779e+001
    endloop
  endfacet
  facet normal -8.716127e-002 9.924033e-001 8.682443e-002
    outer loop
      vertex   1.325523e+001 1.740339e+001 3.160145e+001
      vertex   1.338547e+001 1.747575e+001 3.090510e+001
      vertex   1.312500e+001 1.745305e+001 3.090312e+001
    endloop
  endfacet
  facet normal 8.716096e-002 9.924034e-001 8.682460e-002
    outer loop
      vertex   1.299476e+001 1.740339e+001 3.160145e+001
      vertex   1.286452e+001 1.747575e+001 3.090510e+001
      vertex   1.286452e+001 1.735373e+001 3.229977e+001
    endloop
  endfacet
  facet normal -2.588204e-001 9.622498e-001 8.418649e-002
    outer loop
      vertex   1.351175e+001 1.744845e+001 3.160539e+001
      vertex   1.338547e+001 1.747575e+001 3.090510e+001
      vertex   1.338547e+001 1.735373e+001 3.229977e+001
    endloop
  endfacet
  facet normal 2.588198e-001 9.622499e-001 8.418638e-002
    outer loop
      vertex   1.273825e+001 1.744845e+001 3.160539e+001
      vertex   1.286452e+001 1.747575e+001 3.090510e+001
      vertex   1.261197e+001 1.754317e+001 3.091100e+001
    endloop
  endfacet
  facet normal -8.716033e-002 9.924034e-001 8.682462e-002
    outer loop
      vertex   1.325523e+001 1.740339e+001 3.160145e+001
      vertex   1.338547e+001 1.735373e+001 3.229977e+001
      vertex   1.338547e+001 1.747575e+001 3.090510e+001
    endloop
  endfacet
  facet normal -2.588198e-001 9.622499e-001 8.418638e-002
    outer loop
      vertex   1.351175e+001 1.744845e+001 3.160539e+001
      vertex   1.363803e+001 1.754317e+001 3.091100e+001
      vertex   1.338547e+001 1.747575e+001 3.090510e+001
    endloop
  endfacet
  facet normal 2.588204e-001 9.622498e-001 8.418649e-002
    outer loop
      vertex   1.273825e+001 1.744845e+001 3.160539e+001
      vertex   1.286452e+001 1.735373e+001 3.229977e+001
      vertex   1.286452e+001 1.747575e+001 3.090510e+001
    endloop
  endfacet
  facet normal -4.226131e-001 9.028614e-001 7.899047e-002
    outer loop
      vertex   1.375651e+001 1.753720e+001 3.161315e+001
      vertex   1.387500e+001 1.765325e+001 3.092063e+001
      vertex   1.363803e+001 1.754317e+001 3.091100e+001
    endloop
  endfacet
  facet normal 4.226117e-001 9.028620e-001 7.899082e-002
    outer loop
      vertex   1.249348e+001 1.753720e+001 3.161315e+001
      vertex   1.261197e+001 1.742115e+001 3.230567e+001
      vertex   1.261197e+001 1.754317e+001 3.091100e+001
    endloop
  endfacet
  facet normal -2.588187e-001 9.622502e-001 8.418664e-002
    outer loop
      vertex   1.351175e+001 1.744845e+001 3.160539e+001
      vertex   1.363803e+001 1.742115e+001 3.230567e+001
      vertex   1.363803e+001 1.754317e+001 3.091100e+001
    endloop
  endfacet
  facet normal 2.588187e-001 9.622502e-001 8.418664e-002
    outer loop
      vertex   1.273825e+001 1.744845e+001 3.160539e+001
      vertex   1.261197e+001 1.754317e+001 3.091100e+001
      vertex   1.261197e+001 1.742115e+001 3.230567e+001
    endloop
  endfacet
  facet normal -4.226145e-001 9.028606e-001 7.899069e-002
    outer loop
      vertex   1.375651e+001 1.753720e+001 3.161315e+001
      vertex   1.363803e+001 1.754317e+001 3.091100e+001
      vertex   1.363803e+001 1.742115e+001 3.230567e+001
    endloop
  endfacet
  facet normal 4.226131e-001 9.028613e-001 7.899104e-002
    outer loop
      vertex   1.249348e+001 1.753720e+001 3.161315e+001
      vertex   1.261197e+001 1.754317e+001 3.091100e+001
      vertex   1.237500e+001 1.765325e+001 3.092063e+001
    endloop
  endfacet
  facet normal -5.735772e-001 8.160345e-001 7.139248e-002
    outer loop
      vertex   1.398209e+001 1.766694e+001 3.162450e+001
      vertex   1.408918e+001 1.780265e+001 3.093370e+001
      vertex   1.387500e+001 1.765325e+001 3.092063e+001
    endloop
  endfacet
  facet normal -5.735800e-001 8.160326e-001 7.139295e-002
    outer loop
      vertex   1.398209e+001 1.766694e+001 3.162450e+001
      vertex   1.387500e+001 1.765325e+001 3.092063e+001
      vertex   1.387500e+001 1.753123e+001 3.231530e+001
    endloop
  endfacet
  facet normal 5.735800e-001 8.160326e-001 7.139295e-002
    outer loop
      vertex   1.226791e+001 1.766694e+001 3.162450e+001
      vertex   1.237500e+001 1.753123e+001 3.231530e+001
      vertex   1.237500e+001 1.765325e+001 3.092063e+001
    endloop
  endfacet
  facet normal 5.735754e-001 8.160357e-001 7.139220e-002
    outer loop
      vertex   1.226791e+001 1.766694e+001 3.162450e+001
      vertex   1.237500e+001 1.765325e+001 3.092063e+001
      vertex   1.216082e+001 1.780265e+001 3.093370e+001
    endloop
  endfacet
  facet normal 4.226210e-001 9.028578e-001 7.898910e-002
    outer loop
      vertex   1.249348e+001 1.753720e+001 3.161315e+001
      vertex   1.237500e+001 1.765325e+001 3.092063e+001
      vertex   1.237500e+001 1.753123e+001 3.231530e+001
    endloop
  endfacet
  facet normal -4.226181e-001 9.028591e-001 7.898921e-002
    outer loop
      vertex   1.375651e+001 1.753720e+001 3.161315e+001
      vertex   1.387500e+001 1.753123e+001 3.231530e+001
      vertex   1.387500e+001 1.765325e+001 3.092063e+001
    endloop
  endfacet
  facet normal 7.071065e-001 7.044163e-001 6.162797e-002
    outer loop
      vertex   1.206837e+001 1.783373e+001 3.163910e+001
      vertex   1.216082e+001 1.768063e+001 3.232837e+001
      vertex   1.216082e+001 1.780265e+001 3.093370e+001
    endloop
  endfacet
  facet normal -5.735740e-001 8.160366e-001 7.139339e-002
    outer loop
      vertex   1.398209e+001 1.766694e+001 3.162450e+001
      vertex   1.408918e+001 1.768063e+001 3.232837e+001
      vertex   1.408918e+001 1.780265e+001 3.093370e+001
    endloop
  endfacet
  facet normal 5.735706e-001 8.160390e-001 7.139361e-002
    outer loop
      vertex   1.226791e+001 1.766694e+001 3.162450e+001
      vertex   1.216082e+001 1.780265e+001 3.093370e+001
      vertex   1.216082e+001 1.768063e+001 3.232837e+001
    endloop
  endfacet
  facet normal -7.071098e-001 7.044130e-001 6.162855e-002
    outer loop
      vertex   1.418162e+001 1.783373e+001 3.163910e+001
      vertex   1.427406e+001 1.798683e+001 3.094982e+001
      vertex   1.408918e+001 1.780265e+001 3.093370e+001
    endloop
  endfacet
  facet normal -7.071065e-001 7.044163e-001 6.162797e-002
    outer loop
      vertex   1.418162e+001 1.783373e+001 3.163910e+001
      vertex   1.408918e+001 1.780265e+001 3.093370e+001
      vertex   1.408918e+001 1.768063e+001 3.232837e+001
    endloop
  endfacet
  facet normal 7.071098e-001 7.044130e-001 6.162855e-002
    outer loop
      vertex   1.206837e+001 1.783373e+001 3.163910e+001
      vertex   1.216082e+001 1.780265e+001 3.093370e+001
      vertex   1.197593e+001 1.798683e+001 3.094982e+001
    endloop
  endfacet
  facet normal -8.191484e-001 5.713990e-001 4.999120e-002
    outer loop
      vertex   1.434905e+001 1.803250e+001 3.165649e+001
      vertex   1.427406e+001 1.798683e+001 3.094982e+001
      vertex   1.427406e+001 1.786481e+001 3.234449e+001
    endloop
  endfacet
  facet normal -8.191501e-001 5.713965e-001 4.999153e-002
    outer loop
      vertex   1.434905e+001 1.803250e+001 3.165649e+001
      vertex   1.442404e+001 1.820020e+001 3.096848e+001
      vertex   1.427406e+001 1.798683e+001 3.094982e+001
    endloop
  endfacet
  facet normal 8.191518e-001 5.713942e-001 4.999077e-002
    outer loop
      vertex   1.190094e+001 1.803250e+001 3.165649e+001
      vertex   1.197593e+001 1.786481e+001 3.234449e+001
      vertex   1.197593e+001 1.798683e+001 3.094982e+001
    endloop
  endfacet
  facet normal 8.191518e-001 5.713942e-001 4.999077e-002
    outer loop
      vertex   1.190094e+001 1.803250e+001 3.165649e+001
      vertex   1.197593e+001 1.798683e+001 3.094982e+001
      vertex   1.182596e+001 1.820020e+001 3.096848e+001
    endloop
  endfacet
  facet normal 2.041218e-008 8.715647e-002 -9.961946e-001
    outer loop
      vertex   1.182596e+001 1.820020e+001 3.096848e+001
      vertex   1.197593e+001 1.798683e+001 3.094982e+001
      vertex   -2.987500e+001 1.994354e+001 3.112101e+001
    endloop
  endfacet
  facet normal 7.071101e-001 7.044127e-001 6.162843e-002
    outer loop
      vertex   1.206837e+001 1.783373e+001 3.163910e+001
      vertex   1.197593e+001 1.798683e+001 3.094982e+001
      vertex   1.197593e+001 1.786481e+001 3.234449e+001
    endloop
  endfacet
  facet normal -7.071101e-001 7.044127e-001 6.162843e-002
    outer loop
      vertex   1.418162e+001 1.783373e+001 3.163910e+001
      vertex   1.427406e+001 1.786481e+001 3.234449e+001
      vertex   1.427406e+001 1.798683e+001 3.094982e+001
    endloop
  endfacet
  facet normal -9.063089e-001 4.210077e-001 3.683306e-002
    outer loop
      vertex   1.447929e+001 1.825722e+001 3.167615e+001
      vertex   1.453454e+001 1.843626e+001 3.098914e+001
      vertex   1.442404e+001 1.820020e+001 3.096848e+001
    endloop
  endfacet
  facet normal -8.191516e-001 5.713944e-001 4.999086e-002
    outer loop
      vertex   1.434905e+001 1.803250e+001 3.165649e+001
      vertex   1.442404e+001 1.807818e+001 3.236316e+001
      vertex   1.442404e+001 1.820020e+001 3.096848e+001
    endloop
  endfacet
  facet normal -9.063102e-001 4.210048e-001 3.683339e-002
    outer loop
      vertex   1.447929e+001 1.825722e+001 3.167615e+001
      vertex   1.442404e+001 1.820020e+001 3.096848e+001
      vertex   1.442404e+001 1.807818e+001 3.236316e+001
    endloop
  endfacet
  facet normal 9.063102e-001 4.210048e-001 3.683339e-002
    outer loop
      vertex   1.177071e+001 1.825722e+001 3.167615e+001
      vertex   1.182596e+001 1.807818e+001 3.236316e+001
      vertex   1.182596e+001 1.820020e+001 3.096848e+001
    endloop
  endfacet
  facet normal 9.063076e-001 4.210107e-001 3.683271e-002
    outer loop
      vertex   1.177071e+001 1.825722e+001 3.167615e+001
      vertex   1.182596e+001 1.820020e+001 3.096848e+001
      vertex   1.171546e+001 1.843626e+001 3.098914e+001
    endloop
  endfacet
  facet normal -1.123192e-007 8.715332e-002 -9.961950e-001
    outer loop
      vertex   1.171546e+001 1.843626e+001 3.098914e+001
      vertex   1.182596e+001 1.820020e+001 3.096848e+001
      vertex   -2.987500e+001 1.994354e+001 3.112101e+001
    endloop
  endfacet
  facet normal 8.191516e-001 5.713944e-001 4.999086e-002
    outer loop
      vertex   1.190094e+001 1.803250e+001 3.165649e+001
      vertex   1.182596e+001 1.820020e+001 3.096848e+001
      vertex   1.182596e+001 1.807818e+001 3.236316e+001
    endloop
  endfacet
  facet normal 9.659257e-001 2.578346e-001 2.255772e-002
    outer loop
      vertex   1.168162e+001 1.850105e+001 3.169748e+001
      vertex   1.171546e+001 1.843626e+001 3.098914e+001
      vertex   1.164779e+001 1.868786e+001 3.101115e+001
    endloop
  endfacet
  facet normal 9.659258e-001 2.578344e-001 2.255774e-002
    outer loop
      vertex   1.168162e+001 1.850105e+001 3.169748e+001
      vertex   1.171546e+001 1.831425e+001 3.238381e+001
      vertex   1.171546e+001 1.843626e+001 3.098914e+001
    endloop
  endfacet
  facet normal 1.025134e-007 8.715920e-002 -9.961944e-001
    outer loop
      vertex   1.164779e+001 1.868786e+001 3.101115e+001
      vertex   1.171546e+001 1.843626e+001 3.098914e+001
      vertex   -2.987500e+001 1.994354e+001 3.112101e+001
    endloop
  endfacet
  facet normal -9.659258e-001 2.578344e-001 2.255774e-002
    outer loop
      vertex   1.456837e+001 1.850105e+001 3.169748e+001
      vertex   1.453454e+001 1.843626e+001 3.098914e+001
      vertex   1.453454e+001 1.831425e+001 3.238381e+001
    endloop
  endfacet
  facet normal -9.659257e-001 2.578346e-001 2.255772e-002
    outer loop
      vertex   1.456837e+001 1.850105e+001 3.169748e+001
      vertex   1.460221e+001 1.868786e+001 3.101115e+001
      vertex   1.453454e+001 1.843626e+001 3.098914e+001
    endloop
  endfacet
  facet normal -9.063076e-001 4.210103e-001 3.683387e-002
    outer loop
      vertex   1.447929e+001 1.825722e+001 3.167615e+001
      vertex   1.453454e+001 1.831425e+001 3.238381e+001
      vertex   1.453454e+001 1.843626e+001 3.098914e+001
    endloop
  endfacet
  facet normal 9.063048e-001 4.210163e-001 3.683439e-002
    outer loop
      vertex   1.177071e+001 1.825722e+001 3.167615e+001
      vertex   1.171546e+001 1.843626e+001 3.098914e+001
      vertex   1.171546e+001 1.831425e+001 3.238381e+001
    endloop
  endfacet
  facet normal -5.180301e-008 8.715414e-002 -9.961948e-001
    outer loop
      vertex   1.162500e+001 1.894734e+001 3.103385e+001
      vertex   1.164779e+001 1.868786e+001 3.101115e+001
      vertex   -2.987500e+001 1.994354e+001 3.112101e+001
    endloop
  endfacet
  facet normal -9.961945e-001 8.682636e-002 7.596372e-003
    outer loop
      vertex   1.461360e+001 1.875659e+001 3.171984e+001
      vertex   1.462500e+001 1.894734e+001 3.103385e+001
      vertex   1.460221e+001 1.868786e+001 3.101115e+001
    endloop
  endfacet
  facet normal 9.961951e-001 8.681910e-002 7.595747e-003
    outer loop
      vertex   1.163639e+001 1.875659e+001 3.171984e+001
      vertex   1.164779e+001 1.856584e+001 3.240582e+001
      vertex   1.164779e+001 1.868786e+001 3.101115e+001
    endloop
  endfacet
  facet normal 9.659256e-001 2.578349e-001 2.255781e-002
    outer loop
      vertex   1.168162e+001 1.850105e+001 3.169748e+001
      vertex   1.164779e+001 1.868786e+001 3.101115e+001
      vertex   1.164779e+001 1.856584e+001 3.240582e+001
    endloop
  endfacet
  facet normal 9.961948e-001 8.682282e-002 7.595381e-003
    outer loop
      vertex   1.163639e+001 1.875659e+001 3.171984e+001
      vertex   1.164779e+001 1.868786e+001 3.101115e+001
      vertex   1.162500e+001 1.894734e+001 3.103385e+001
    endloop
  endfacet
  facet normal -9.659256e-001 2.578349e-001 2.255781e-002
    outer loop
      vertex   1.456837e+001 1.850105e+001 3.169748e+001
      vertex   1.460221e+001 1.856584e+001 3.240582e+001
      vertex   1.460221e+001 1.868786e+001 3.101115e+001
    endloop
  endfacet
  facet normal -9.961945e-001 8.682632e-002 7.596377e-003
    outer loop
      vertex   1.461360e+001 1.875659e+001 3.171984e+001
      vertex   1.460221e+001 1.868786e+001 3.101115e+001
      vertex   1.460221e+001 1.856584e+001 3.240582e+001
    endloop
  endfacet
  facet normal -9.961945e-001 8.682632e-002 7.596357e-003
    outer loop
      vertex   1.461360e+001 1.875659e+001 3.171984e+001
      vertex   1.462500e+001 1.882532e+001 3.242852e+001
      vertex   1.462500e+001 1.894734e+001 3.103385e+001
    endloop
  endfacet
  facet normal 1.000000e+000 0.000000e+000 0.000000e+000
    outer loop
      vertex   1.162500e+001 1.938443e+001 3.177477e+001
      vertex   1.162500e+001 1.882532e+001 3.242852e+001
      vertex   1.162500e+001 1.894734e+001 3.103385e+001
    endloop
  endfacet
  facet normal 9.961945e-001 8.682632e-002 7.596357e-003
    outer loop
      vertex   1.163639e+001 1.875659e+001 3.171984e+001
      vertex   1.162500e+001 1.894734e+001 3.103385e+001
      vertex   1.162500e+001 1.882532e+001 3.242852e+001
    endloop
  endfacet
  facet normal -1.000000e+000 0.000000e+000 0.000000e+000
    outer loop
      vertex   1.462500e+001 1.938443e+001 3.177477e+001
      vertex   1.462500e+001 1.894734e+001 3.103385e+001
      vertex   1.462500e+001 1.882532e+001 3.242852e+001
    endloop
  endfacet
  facet normal 0.000000e+000 8.715628e-002 -9.961947e-001
    outer loop
      vertex   1.162500e+001 1.994354e+001 3.112101e+001
      vertex   1.162500e+001 1.894734e+001 3.103385e+001
      vertex   -2.987500e+001 1.994354e+001 3.112101e+001
    endloop
  endfacet
  facet normal 1.000000e+000 0.000000e+000 0.000000e+000
    outer loop
      vertex   1.162500e+001 1.938443e+001 3.177477e+001
      vertex   1.162500e+001 1.894734e+001 3.103385e+001
      vertex   1.162500e+001 1.994354e+001 3.112101e+001
    endloop
  endfacet
  facet normal -1.000000e+000 -0.000000e+000 0.000000e+000
    outer loop
      vertex   1.462500e+001 1.938443e+001 3.177477e+001
      vertex   1.462500e+001 1.994354e+001 3.112101e+001
      vertex   1.462500e+001 1.894734e+001 3.103385e+001
    endloop
  endfacet
  facet normal 1.000000e+000 0.000000e+000 0.000000e+000
    outer loop
      vertex   1.162500e+001 1.938443e+001 3.177477e+001
      vertex   1.162500e+001 1.994354e+001 3.112101e+001
      vertex   1.162500e+001 1.982152e+001 3.251568e+001
    endloop
  endfacet
  facet normal 0.000000e+000 9.961945e-001 8.715765e-002
    outer loop
      vertex   -9.125003e+000 1.988253e+001 3.181834e+001
      vertex   1.162500e+001 1.994354e+001 3.112101e+001
      vertex   -2.987500e+001 1.994354e+001 3.112101e+001
    endloop
  endfacet
  facet normal -3.423586e-008 9.961947e-001 8.715630e-002
    outer loop
      vertex   4.237500e+001 1.988253e+001 3.181834e+001
      vertex   7.012500e+001 1.982152e+001 3.251568e+001
      vertex   7.012500e+001 1.994354e+001 3.112101e+001
    endloop
  endfacet
  facet normal -4.578531e-008 9.961946e-001 8.715630e-002
    outer loop
      vertex   -9.125003e+000 1.988253e+001 3.181834e+001
      vertex   1.162500e+001 1.982152e+001 3.251568e+001
      vertex   1.162500e+001 1.994354e+001 3.112101e+001
    endloop
  endfacet
  facet normal 4.578531e-008 9.961946e-001 8.715630e-002
    outer loop
      vertex   -9.125003e+000 1.988253e+001 3.181834e+001
      vertex   -2.987500e+001 1.994354e+001 3.112101e+001
      vertex   -2.987500e+001 1.982152e+001 3.251568e+001
    endloop
  endfacet
  facet normal -1.000000e+000 0.000000e+000 -0.000000e+000
    outer loop
      vertex   1.462500e+001 1.938443e+001 3.177477e+001
      vertex   1.462500e+001 1.982152e+001 3.251568e+001
      vertex   1.462500e+001 1.994354e+001 3.112101e+001
    endloop
  endfacet
  facet normal 0.000000e+000 9.961945e-001 8.715766e-002
    outer loop
      vertex   4.237500e+001 1.988253e+001 3.181834e+001
      vertex   7.012500e+001 1.994354e+001 3.112101e+001
      vertex   1.462500e+001 1.994354e+001 3.112101e+001
    endloop
  endfacet
  facet normal 3.423586e-008 9.961946e-001 8.715630e-002
    outer loop
      vertex   4.237500e+001 1.988253e+001 3.181834e+001
      vertex   1.462500e+001 1.994354e+001 3.112101e+001
      vertex   1.462500e+001 1.982152e+001 3.251568e+001
    endloop
  endfacet
  facet normal -8.715343e-002 9.924042e-001 8.682337e-002
    outer loop
      vertex   1.325523e+001 1.740339e+001 3.160145e+001
      vertex   1.312500e+001 1.733103e+001 3.229779e+001
      vertex   1.338547e+001 1.735373e+001 3.229977e+001
    endloop
  endfacet
  facet normal 8.715343e-002 9.924042e-001 8.682325e-002
    outer loop
      vertex   1.299476e+001 1.740339e+001 3.160145e+001
      vertex   1.286452e+001 1.735373e+001 3.229977e+001
      vertex   1.312500e+001 1.733103e+001 3.229779e+001
    endloop
  endfacet
  facet normal 2.588193e-001 9.622501e-001 8.418675e-002
    outer loop
      vertex   1.273825e+001 1.744845e+001 3.160539e+001
      vertex   1.261197e+001 1.742115e+001 3.230567e+001
      vertex   1.286452e+001 1.735373e+001 3.229977e+001
    endloop
  endfacet
  facet normal -2.588193e-001 9.622501e-001 8.418675e-002
    outer loop
      vertex   1.351175e+001 1.744845e+001 3.160539e+001
      vertex   1.338547e+001 1.735373e+001 3.229977e+001
      vertex   1.363803e+001 1.742115e+001 3.230567e+001
    endloop
  endfacet
  facet normal 4.226196e-001 9.028585e-001 7.898887e-002
    outer loop
      vertex   1.249348e+001 1.753720e+001 3.161315e+001
      vertex   1.237500e+001 1.753123e+001 3.231530e+001
      vertex   1.261197e+001 1.742115e+001 3.230567e+001
    endloop
  endfacet
  facet normal -4.226196e-001 9.028584e-001 7.898944e-002
    outer loop
      vertex   1.375651e+001 1.753720e+001 3.161315e+001
      vertex   1.363803e+001 1.742115e+001 3.230567e+001
      vertex   1.387500e+001 1.753123e+001 3.231530e+001
    endloop
  endfacet
  facet normal -5.735767e-001 8.160346e-001 7.139385e-002
    outer loop
      vertex   1.398209e+001 1.766694e+001 3.162450e+001
      vertex   1.387500e+001 1.753123e+001 3.231530e+001
      vertex   1.408918e+001 1.768063e+001 3.232837e+001
    endloop
  endfacet
  facet normal 5.735750e-001 8.160359e-001 7.139435e-002
    outer loop
      vertex   1.226791e+001 1.766694e+001 3.162450e+001
      vertex   1.216082e+001 1.768063e+001 3.232837e+001
      vertex   1.237500e+001 1.753123e+001 3.231530e+001
    endloop
  endfacet
  facet normal -7.071068e-001 7.044160e-001 6.162785e-002
    outer loop
      vertex   1.418162e+001 1.783373e+001 3.163910e+001
      vertex   1.408918e+001 1.768063e+001 3.232837e+001
      vertex   1.427406e+001 1.786481e+001 3.234449e+001
    endloop
  endfacet
  facet normal 7.071068e-001 7.044160e-001 6.162785e-002
    outer loop
      vertex   1.206837e+001 1.783373e+001 3.163910e+001
      vertex   1.197593e+001 1.786481e+001 3.234449e+001
      vertex   1.216082e+001 1.768063e+001 3.232837e+001
    endloop
  endfacet
  facet normal -8.191499e-001 5.713969e-001 4.999052e-002
    outer loop
      vertex   1.434905e+001 1.803250e+001 3.165649e+001
      vertex   1.427406e+001 1.786481e+001 3.234449e+001
      vertex   1.442404e+001 1.807818e+001 3.236316e+001
    endloop
  endfacet
  facet normal 8.191516e-001 5.713944e-001 4.999086e-002
    outer loop
      vertex   1.190094e+001 1.803250e+001 3.165649e+001
      vertex   1.182596e+001 1.807818e+001 3.236316e+001
      vertex   1.197593e+001 1.786481e+001 3.234449e+001
    endloop
  endfacet
  facet normal -9.063089e-001 4.210076e-001 3.683420e-002
    outer loop
      vertex   1.447929e+001 1.825722e+001 3.167615e+001
      vertex   1.442404e+001 1.807818e+001 3.236316e+001
      vertex   1.453454e+001 1.831425e+001 3.238381e+001
    endloop
  endfacet
  facet normal 9.063076e-001 4.210105e-001 3.683508e-002
    outer loop
      vertex   1.177071e+001 1.825722e+001 3.167615e+001
      vertex   1.171546e+001 1.831425e+001 3.238381e+001
      vertex   1.182596e+001 1.807818e+001 3.236316e+001
    endloop
  endfacet
  facet normal -9.659257e-001 2.578348e-001 2.255783e-002
    outer loop
      vertex   1.456837e+001 1.850105e+001 3.169748e+001
      vertex   1.453454e+001 1.831425e+001 3.238381e+001
      vertex   1.460221e+001 1.856584e+001 3.240582e+001
    endloop
  endfacet
  facet normal 9.659257e-001 2.578348e-001 2.255783e-002
    outer loop
      vertex   1.168162e+001 1.850105e+001 3.169748e+001
      vertex   1.164779e+001 1.856584e+001 3.240582e+001
      vertex   1.171546e+001 1.831425e+001 3.238381e+001
    endloop
  endfacet
  facet normal 9.961948e-001 8.682260e-002 7.596723e-003
    outer loop
      vertex   1.163639e+001 1.875659e+001 3.171984e+001
      vertex   1.162500e+001 1.882532e+001 3.242852e+001
      vertex   1.164779e+001 1.856584e+001 3.240582e+001
    endloop
  endfacet
  facet normal -9.961945e-001 8.682626e-002 7.596362e-003
    outer loop
      vertex   1.461360e+001 1.875659e+001 3.171984e+001
      vertex   1.460221e+001 1.856584e+001 3.240582e+001
      vertex   1.462500e+001 1.882532e+001 3.242852e+001
    endloop
  endfacet
  facet normal -1.000000e+000 0.000000e+000 0.000000e+000
    outer loop
      vertex   1.462500e+001 1.938443e+001 3.177477e+001
      vertex   1.462500e+001 1.882532e+001 3.242852e+001
      vertex   1.462500e+001 1.982152e+001 3.251568e+001
    endloop
  endfacet
  facet normal 1.000000e+000 0.000000e+000 0.000000e+000
    outer loop
      vertex   1.162500e+001 1.938443e+001 3.177477e+001
      vertex   1.162500e+001 1.982152e+001 3.251568e+001
      vertex   1.162500e+001 1.882532e+001 3.242852e+001
    endloop
  endfacet
  facet normal -0.000000e+000 9.961947e-001 8.715495e-002
    outer loop
      vertex   4.237500e+001 1.988253e+001 3.181834e+001
      vertex   1.462500e+001 1.982152e+001 3.251568e+001
      vertex   7.012500e+001 1.982152e+001 3.251568e+001
    endloop
  endfacet
  facet normal -0.000000e+000 9.961948e-001 8.715495e-002
    outer loop
      vertex   -9.125003e+000 1.988253e+001 3.181834e+001
      vertex   -2.987500e+001 1.982152e+001 3.251568e+001
      vertex   1.162500e+001 1.982152e+001 3.251568e+001
    endloop
  endfacet
  facet normal -9.160840e-007 -8.717452e-002 9.961931e-001
    outer loop
      vertex   1.197593e+001 1.786481e+001 3.234449e+001
      vertex   -2.987500e+001 1.982152e+001 3.251568e+001
      vertex   1.216082e+001 1.768063e+001 3.232837e+001
    endloop
  endfacet
  facet normal 3.631533e-007 -8.714737e-002 9.961954e-001
    outer loop
      vertex   1.182596e+001 1.807818e+001 3.236316e+001
      vertex   -2.987500e+001 1.982152e+001 3.251568e+001
      vertex   1.197593e+001 1.786481e+001 3.234449e+001
    endloop
  endfacet
  facet normal 1.123192e-007 -8.715332e-002 9.961948e-001
    outer loop
      vertex   1.171546e+001 1.831425e+001 3.238381e+001
      vertex   -2.987500e+001 1.982152e+001 3.251568e+001
      vertex   1.182596e+001 1.807818e+001 3.236316e+001
    endloop
  endfacet
  facet normal 1.738765e-007 -8.715163e-002 9.961951e-001
    outer loop
      vertex   1.164779e+001 1.856584e+001 3.240582e+001
      vertex   -2.987500e+001 1.982152e+001 3.251568e+001
      vertex   1.171546e+001 1.831425e+001 3.238381e+001
    endloop
  endfacet
  facet normal -3.463771e-007 -8.716871e-002 9.961935e-001
    outer loop
      vertex   1.162500e+001 1.882532e+001 3.242852e+001
      vertex   -2.987500e+001 1.982152e+001 3.251568e+001
      vertex   1.164779e+001 1.856584e+001 3.240582e+001
    endloop
  endfacet
  facet normal 0.000000e+000 -8.715439e-002 9.961948e-001
    outer loop
      vertex   1.162500e+001 1.982152e+001 3.251568e+001
      vertex   -2.987500e+001 1.982152e+001 3.251568e+001
      vertex   1.162500e+001 1.882532e+001 3.242852e+001
    endloop
  endfacet
endsolid
