solid ascii
  facet normal -9.063175e-001 4.225975e-001 -5.757433e-007
    outer loop
      vertex   5.835429e+001 3.084849e+001 7.000001e-001
      vertex   5.829904e+001 3.073000e+001 -1.101063e-007
      vertex   5.829904e+001 3.073000e+001 1.400000e+000
    endloop
  endfacet
  facet normal -8.191486e-001 5.735813e-001 -7.814425e-007
    outer loop
      vertex   5.822405e+001 3.062291e+001 7.000000e-001
      vertex   5.829904e+001 3.073000e+001 1.400000e+000
      vertex   5.829904e+001 3.073000e+001 -1.101063e-007
    endloop
  endfacet
  facet normal 9.063092e-001 4.226151e-001 -4.196798e-006
    outer loop
      vertex   5.564571e+001 3.084849e+001 7.000001e-001
      vertex   5.570096e+001 3.073000e+001 -1.101063e-007
      vertex   5.559046e+001 3.096697e+001 -2.097827e-008
    endloop
  endfacet
  facet normal 8.191486e-001 5.735813e-001 -7.814425e-007
    outer loop
      vertex   5.577595e+001 3.062291e+001 7.000000e-001
      vertex   5.570096e+001 3.073000e+001 -1.101063e-007
      vertex   5.570096e+001 3.073000e+001 1.400000e+000
    endloop
  endfacet
  facet normal 9.063175e-001 4.225975e-001 -5.757433e-007
    outer loop
      vertex   5.564571e+001 3.084849e+001 7.000001e-001
      vertex   5.570096e+001 3.073000e+001 1.400000e+000
      vertex   5.570096e+001 3.073000e+001 -1.101063e-007
    endloop
  endfacet
  facet normal -9.063092e-001 4.226151e-001 -4.196798e-006
    outer loop
      vertex   5.835429e+001 3.084849e+001 7.000001e-001
      vertex   5.840954e+001 3.096697e+001 -2.097827e-008
      vertex   5.829904e+001 3.073000e+001 -1.101063e-007
    endloop
  endfacet
  facet normal -3.462756e-007 -4.730596e-007 -1.000000e+000
    outer loop
      vertex   1.000000e+002 -2.686831e-007 -1.301087e-008
      vertex   5.814907e+001 3.051582e+001 4.314484e-008
      vertex   5.829904e+001 3.073000e+001 -1.101063e-007
    endloop
  endfacet
  facet normal 2.080132e-007 2.791167e-007 -1.000000e+000
    outer loop
      vertex   1.000000e+002 -2.686831e-007 -1.301087e-008
      vertex   5.829904e+001 3.073000e+001 -1.101063e-007
      vertex   5.840954e+001 3.096697e+001 -2.097827e-008
    endloop
  endfacet
  facet normal -2.388633e-008 -7.322507e-007 -1.000000e+000
    outer loop
      vertex   5.570096e+001 3.073000e+001 -1.101063e-007
      vertex   5.585093e+001 3.051582e+001 4.314484e-008
      vertex   0.000000e+000 3.248000e+001 -6.105489e-008
    endloop
  endfacet
  facet normal 8.191510e-001 5.735779e-001 -1.562876e-006
    outer loop
      vertex   5.577595e+001 3.062291e+001 7.000000e-001
      vertex   5.585093e+001 3.051582e+001 4.314484e-008
      vertex   5.570096e+001 3.073000e+001 -1.101063e-007
    endloop
  endfacet
  facet normal 1.109865e-008 3.812894e-007 -1.000000e+000
    outer loop
      vertex   5.559046e+001 3.096697e+001 -2.097827e-008
      vertex   5.570096e+001 3.073000e+001 -1.101063e-007
      vertex   0.000000e+000 3.248000e+001 -6.105489e-008
    endloop
  endfacet
  facet normal -8.191510e-001 5.735779e-001 -1.562876e-006
    outer loop
      vertex   5.822405e+001 3.062291e+001 7.000000e-001
      vertex   5.829904e+001 3.073000e+001 -1.101063e-007
      vertex   5.814907e+001 3.051582e+001 4.314484e-008
    endloop
  endfacet
  facet normal 0.000000e+000 1.000000e+000 0.000000e+000
    outer loop
      vertex   2.775000e+001 3.248000e+001 6.999999e-001
      vertex   0.000000e+000 3.248000e+001 -6.105489e-008
      vertex   0.000000e+000 3.248000e+001 1.400000e+000
    endloop
  endfacet
  facet normal -1.000000e+000 0.000000e+000 0.000000e+000
    outer loop
      vertex   0.000000e+000 3.248000e+001 1.400000e+000
      vertex   0.000000e+000 3.248000e+001 -6.105489e-008
      vertex   0.000000e+000 1.744000e+001 1.400000e+000
    endloop
  endfacet
  facet normal 0.000000e+000 1.000000e+000 0.000000e+000
    outer loop
      vertex   2.775000e+001 3.248000e+001 6.999999e-001
      vertex   5.550000e+001 3.248000e+001 -6.105489e-008
      vertex   0.000000e+000 3.248000e+001 -6.105489e-008
    endloop
  endfacet
  facet normal 0.000000e+000 1.000000e+000 0.000000e+000
    outer loop
      vertex   2.775000e+001 3.248000e+001 6.999999e-001
      vertex   5.550000e+001 3.248000e+001 1.400000e+000
      vertex   5.550000e+001 3.248000e+001 -6.105489e-008
    endloop
  endfacet
  facet normal -2.768782e-009 -2.172465e-007 -1.000000e+000
    outer loop
      vertex   5.550000e+001 3.148000e+001 2.524141e-009
      vertex   5.552279e+001 3.121953e+001 5.904793e-008
      vertex   0.000000e+000 3.248000e+001 -6.105489e-008
    endloop
  endfacet
  facet normal 9.413784e-009 3.193854e-007 -1.000000e+000
    outer loop
      vertex   5.552279e+001 3.121953e+001 5.904793e-008
      vertex   5.559046e+001 3.096697e+001 -2.097827e-008
      vertex   0.000000e+000 3.248000e+001 -6.105489e-008
    endloop
  endfacet
  facet normal -4.860248e-008 -6.357903e-008 -1.000000e+000
    outer loop
      vertex   1.000000e+002 -2.686831e-007 -1.301087e-008
      vertex   5.850000e+001 3.148000e+001 2.524141e-009
      vertex   5.850000e+001 3.248000e+001 -6.105489e-008
    endloop
  endfacet
  facet normal 0.000000e+000 -6.357903e-008 -1.000000e+000
    outer loop
      vertex   5.550000e+001 3.248000e+001 -6.105489e-008
      vertex   5.550000e+001 3.148000e+001 2.524141e-009
      vertex   0.000000e+000 3.248000e+001 -6.105489e-008
    endloop
  endfacet
  facet normal 0.000000e+000 1.000000e+000 0.000000e+000
    outer loop
      vertex   7.925000e+001 3.248000e+001 6.999999e-001
      vertex   5.850000e+001 3.248000e+001 -6.105489e-008
      vertex   5.850000e+001 3.248000e+001 1.400000e+000
    endloop
  endfacet
  facet normal 1.813655e-009 -1.479188e-009 -1.000000e+000
    outer loop
      vertex   5.585093e+001 3.051582e+001 4.314484e-008
      vertex   0.000000e+000 -2.686831e-007 -1.301087e-008
      vertex   0.000000e+000 3.248000e+001 -6.105489e-008
    endloop
  endfacet
  facet normal 0.000000e+000 -1.479188e-009 -1.000000e+000
    outer loop
      vertex   1.000000e+002 3.248000e+001 -6.105489e-008
      vertex   1.000000e+002 -2.686831e-007 -1.301087e-008
      vertex   5.850000e+001 3.248000e+001 -6.105489e-008
    endloop
  endfacet
  facet normal 0.000000e+000 1.000000e+000 0.000000e+000
    outer loop
      vertex   7.925000e+001 3.248000e+001 6.999999e-001
      vertex   1.000000e+002 3.248000e+001 -6.105489e-008
      vertex   5.850000e+001 3.248000e+001 -6.105489e-008
    endloop
  endfacet
  facet normal 1.000000e+000 0.000000e+000 -0.000000e+000
    outer loop
      vertex   5.550000e+001 3.198000e+001 7.000000e-001
      vertex   5.550000e+001 3.248000e+001 -6.105489e-008
      vertex   5.550000e+001 3.248000e+001 1.400000e+000
    endloop
  endfacet
  facet normal -1.000000e+000 0.000000e+000 0.000000e+000
    outer loop
      vertex   0.000000e+000 3.248000e+001 -6.105489e-008
      vertex   0.000000e+000 -2.686831e-007 -1.301087e-008
      vertex   0.000000e+000 1.744000e+001 1.400000e+000
    endloop
  endfacet
  facet normal 1.000000e+000 0.000000e+000 0.000000e+000
    outer loop
      vertex   1.000000e+002 3.248000e+001 -6.105489e-008
      vertex   1.000000e+002 1.744000e+001 1.400000e+000
      vertex   1.000000e+002 -2.686831e-007 -1.301087e-008
    endloop
  endfacet
  facet normal 1.000000e+000 -0.000000e+000 0.000000e+000
    outer loop
      vertex   5.550000e+001 3.198000e+001 7.000000e-001
      vertex   5.550000e+001 3.148000e+001 2.524141e-009
      vertex   5.550000e+001 3.248000e+001 -6.105489e-008
    endloop
  endfacet
  facet normal 1.000000e+000 -0.000000e+000 0.000000e+000
    outer loop
      vertex   1.000000e+002 3.248000e+001 1.400000e+000
      vertex   1.000000e+002 1.744000e+001 1.400000e+000
      vertex   1.000000e+002 3.248000e+001 -6.105489e-008
    endloop
  endfacet
  facet normal 0.000000e+000 1.000000e+000 0.000000e+000
    outer loop
      vertex   7.925000e+001 3.248000e+001 6.999999e-001
      vertex   1.000000e+002 3.248000e+001 1.400000e+000
      vertex   1.000000e+002 3.248000e+001 -6.105489e-008
    endloop
  endfacet
  facet normal -1.000000e+000 0.000000e+000 -0.000000e+000
    outer loop
      vertex   5.850000e+001 3.198000e+001 7.000000e-001
      vertex   5.850000e+001 3.248000e+001 1.400000e+000
      vertex   5.850000e+001 3.248000e+001 -6.105489e-008
    endloop
  endfacet
  facet normal -1.000000e+000 0.000000e+000 0.000000e+000
    outer loop
      vertex   5.850000e+001 3.198000e+001 7.000000e-001
      vertex   5.850000e+001 3.248000e+001 -6.105489e-008
      vertex   5.850000e+001 3.148000e+001 2.524141e-009
    endloop
  endfacet
  facet normal -8.715845e-002 9.961945e-001 2.374879e-007
    outer loop
      vertex   5.713024e+001 2.999139e+001 7.000000e-001
      vertex   5.726047e+001 3.000279e+001 1.964244e-008
      vertex   5.700000e+001 2.998000e+001 -5.650044e-008
    endloop
  endfacet
  facet normal -2.507443e-007 4.752813e-007 -1.000000e+000
    outer loop
      vertex   5.700000e+001 2.998000e+001 -5.650044e-008
      vertex   0.000000e+000 -2.686831e-007 -1.301087e-008
      vertex   5.673953e+001 3.000279e+001 1.964244e-008
    endloop
  endfacet
  facet normal 8.715846e-002 9.961945e-001 2.374879e-007
    outer loop
      vertex   5.686976e+001 2.999139e+001 7.000000e-001
      vertex   5.700000e+001 2.998000e+001 -5.650044e-008
      vertex   5.673953e+001 3.000279e+001 1.964244e-008
    endloop
  endfacet
  facet normal 8.715717e-002 9.961945e-001 0.000000e+000
    outer loop
      vertex   5.686976e+001 2.999139e+001 7.000000e-001
      vertex   5.700000e+001 2.998000e+001 1.400000e+000
      vertex   5.700000e+001 2.998000e+001 -5.650044e-008
    endloop
  endfacet
  facet normal -8.715717e-002 9.961945e-001 0.000000e+000
    outer loop
      vertex   5.713024e+001 2.999139e+001 7.000000e-001
      vertex   5.700000e+001 2.998000e+001 -5.650044e-008
      vertex   5.700000e+001 2.998000e+001 1.400000e+000
    endloop
  endfacet
  facet normal 3.508094e-007 -6.684331e-007 -1.000000e+000
    outer loop
      vertex   5.726047e+001 3.000279e+001 1.964244e-008
      vertex   0.000000e+000 -2.686831e-007 -1.301087e-008
      vertex   5.700000e+001 2.998000e+001 -5.650044e-008
    endloop
  endfacet
  facet normal 9.659258e-001 2.588193e-001 -3.526133e-007
    outer loop
      vertex   5.555663e+001 3.109325e+001 7.000001e-001
      vertex   5.559046e+001 3.096697e+001 1.400000e+000
      vertex   5.559046e+001 3.096697e+001 -2.097827e-008
    endloop
  endfacet
  facet normal 9.063011e-001 4.226327e-001 -5.757913e-007
    outer loop
      vertex   5.564571e+001 3.084849e+001 7.000001e-001
      vertex   5.559046e+001 3.096697e+001 -2.097827e-008
      vertex   5.559046e+001 3.096697e+001 1.400000e+000
    endloop
  endfacet
  facet normal 9.659258e-001 2.588193e-001 -3.526133e-007
    outer loop
      vertex   5.555663e+001 3.109325e+001 7.000001e-001
      vertex   5.559046e+001 3.096697e+001 -2.097827e-008
      vertex   5.552279e+001 3.121953e+001 5.904793e-008
    endloop
  endfacet
  facet normal -9.063011e-001 4.226327e-001 -5.757913e-007
    outer loop
      vertex   5.835429e+001 3.084849e+001 7.000001e-001
      vertex   5.840954e+001 3.096697e+001 1.400000e+000
      vertex   5.840954e+001 3.096697e+001 -2.097827e-008
    endloop
  endfacet
  facet normal -9.659258e-001 2.588193e-001 -3.526133e-007
    outer loop
      vertex   5.844337e+001 3.109325e+001 7.000001e-001
      vertex   5.847721e+001 3.121953e+001 5.904793e-008
      vertex   5.840954e+001 3.096697e+001 -2.097827e-008
    endloop
  endfacet
  facet normal -9.659258e-001 2.588193e-001 -3.526133e-007
    outer loop
      vertex   5.844337e+001 3.109325e+001 7.000001e-001
      vertex   5.840954e+001 3.096697e+001 -2.097827e-008
      vertex   5.840954e+001 3.096697e+001 1.400000e+000
    endloop
  endfacet
  facet normal 1.968458e-007 2.641182e-007 -1.000000e+000
    outer loop
      vertex   1.000000e+002 -2.686831e-007 -1.301087e-008
      vertex   5.840954e+001 3.096697e+001 -2.097827e-008
      vertex   5.847721e+001 3.121953e+001 5.904793e-008
    endloop
  endfacet
  facet normal 4.226179e-001 9.063079e-001 -0.000000e+000
    outer loop
      vertex   5.636848e+001 3.012571e+001 7.000000e-001
      vertex   5.625000e+001 3.018096e+001 -1.353493e-008
      vertex   5.625000e+001 3.018096e+001 1.400000e+000
    endloop
  endfacet
  facet normal -5.735779e-001 8.191510e-001 0.000000e+000
    outer loop
      vertex   5.785709e+001 3.025595e+001 7.000000e-001
      vertex   5.775000e+001 3.018096e+001 -1.353493e-008
      vertex   5.775000e+001 3.018096e+001 1.400000e+000
    endloop
  endfacet
  facet normal 4.226179e-001 9.063079e-001 0.000000e+000
    outer loop
      vertex   5.636848e+001 3.012571e+001 7.000000e-001
      vertex   5.648697e+001 3.007046e+001 8.958919e-008
      vertex   5.625000e+001 3.018096e+001 -1.353493e-008
    endloop
  endfacet
  facet normal -4.039058e-006 7.728549e-006 -1.000000e+000
    outer loop
      vertex   5.775000e+001 3.018096e+001 -1.353493e-008
      vertex   0.000000e+000 -2.686831e-007 -1.301087e-008
      vertex   5.751303e+001 3.007046e+001 8.958919e-008
    endloop
  endfacet
  facet normal -5.735779e-001 8.191510e-001 0.000000e+000
    outer loop
      vertex   5.785709e+001 3.025595e+001 7.000000e-001
      vertex   5.796418e+001 3.033093e+001 3.306540e-008
      vertex   5.775000e+001 3.018096e+001 -1.353493e-008
    endloop
  endfacet
  facet normal 5.735779e-001 8.191510e-001 0.000000e+000
    outer loop
      vertex   5.614291e+001 3.025595e+001 7.000000e-001
      vertex   5.625000e+001 3.018096e+001 1.400000e+000
      vertex   5.625000e+001 3.018096e+001 -1.353493e-008
    endloop
  endfacet
  facet normal 5.735778e-001 8.191510e-001 0.000000e+000
    outer loop
      vertex   5.614291e+001 3.025595e+001 7.000000e-001
      vertex   5.625000e+001 3.018096e+001 -1.353493e-008
      vertex   5.603582e+001 3.033093e+001 3.306540e-008
    endloop
  endfacet
  facet normal 0.000000e+000 -1.736410e-011 -1.000000e+000
    outer loop
      vertex   1.000000e+002 -2.686831e-007 -1.301087e-008
      vertex   0.000000e+000 -2.686831e-007 -1.301087e-008
      vertex   5.775000e+001 3.018096e+001 -1.353493e-008
    endloop
  endfacet
  facet normal 1.098808e-007 1.538035e-007 -1.000000e+000
    outer loop
      vertex   1.000000e+002 -2.686831e-007 -1.301087e-008
      vertex   5.775000e+001 3.018096e+001 -1.353493e-008
      vertex   5.796418e+001 3.033093e+001 3.306540e-008
    endloop
  endfacet
  facet normal -4.226179e-001 9.063079e-001 0.000000e+000
    outer loop
      vertex   5.763152e+001 3.012571e+001 7.000000e-001
      vertex   5.775000e+001 3.018096e+001 1.400000e+000
      vertex   5.775000e+001 3.018096e+001 -1.353493e-008
    endloop
  endfacet
  facet normal 2.328263e-007 -4.339491e-007 -1.000000e+000
    outer loop
      vertex   5.648697e+001 3.007046e+001 8.958919e-008
      vertex   0.000000e+000 -2.686831e-007 -1.301087e-008
      vertex   5.625000e+001 3.018096e+001 -1.353493e-008
    endloop
  endfacet
  facet normal -9.439724e-008 1.759162e-007 -1.000000e+000
    outer loop
      vertex   5.625000e+001 3.018096e+001 -1.353493e-008
      vertex   0.000000e+000 -2.686831e-007 -1.301087e-008
      vertex   5.603582e+001 3.033093e+001 3.306540e-008
    endloop
  endfacet
  facet normal -4.226179e-001 9.063079e-001 0.000000e+000
    outer loop
      vertex   5.763152e+001 3.012571e+001 7.000000e-001
      vertex   5.775000e+001 3.018096e+001 -1.353493e-008
      vertex   5.751303e+001 3.007046e+001 8.958919e-008
    endloop
  endfacet
  facet normal -1.547158e-007 -2.034680e-007 -1.000000e+000
    outer loop
      vertex   1.000000e+002 -2.686831e-007 -1.301087e-008
      vertex   5.847721e+001 3.121953e+001 5.904793e-008
      vertex   5.850000e+001 3.148000e+001 2.524141e-009
    endloop
  endfacet
  facet normal 2.221296e-008 3.230419e-008 -1.000000e+000
    outer loop
      vertex   1.000000e+002 -2.686831e-007 -1.301087e-008
      vertex   5.796418e+001 3.033093e+001 3.306540e-008
      vertex   5.814907e+001 3.051582e+001 4.314484e-008
    endloop
  endfacet
  facet normal -9.500453e-009 -1.000000e+000 -1.236753e-007
    outer loop
      vertex   5.000000e+001 1.197668e-007 7.000000e-001
      vertex   1.000000e+002 -2.686831e-007 -1.301087e-008
      vertex   1.000000e+002 -4.418285e-007 1.400000e+000
    endloop
  endfacet
  facet normal 0.000000e+000 -1.000000e+000 5.549285e-007
    outer loop
      vertex   5.000000e+001 1.197668e-007 7.000000e-001
      vertex   0.000000e+000 -2.686831e-007 -1.301087e-008
      vertex   1.000000e+002 -2.686831e-007 -1.301087e-008
    endloop
  endfacet
  facet normal 9.500453e-009 -1.000000e+000 -1.236753e-007
    outer loop
      vertex   5.000000e+001 1.197668e-007 7.000000e-001
      vertex   0.000000e+000 -4.418286e-007 1.400000e+000
      vertex   0.000000e+000 -2.686831e-007 -1.301087e-008
    endloop
  endfacet
  facet normal 5.662054e-007 -1.079517e-006 -1.000000e+000
    outer loop
      vertex   5.751303e+001 3.007046e+001 8.958919e-008
      vertex   0.000000e+000 -2.686831e-007 -1.301087e-008
      vertex   5.726047e+001 3.000279e+001 1.964244e-008
    endloop
  endfacet
  facet normal -1.836164e-007 3.483331e-007 -1.000000e+000
    outer loop
      vertex   5.673953e+001 3.000279e+001 1.964244e-008
      vertex   0.000000e+000 -2.686831e-007 -1.301087e-008
      vertex   5.648697e+001 3.007046e+001 8.958919e-008
    endloop
  endfacet
  facet normal -1.000000e+000 0.000000e+000 0.000000e+000
    outer loop
      vertex   0.000000e+000 1.744000e+001 1.400000e+000
      vertex   0.000000e+000 -2.686831e-007 -1.301087e-008
      vertex   0.000000e+000 1.504000e+001 1.400000e+000
    endloop
  endfacet
  facet normal -1.000000e+000 0.000000e+000 0.000000e+000
    outer loop
      vertex   0.000000e+000 1.504000e+001 1.400000e+000
      vertex   0.000000e+000 -2.686831e-007 -1.301087e-008
      vertex   0.000000e+000 -4.418286e-007 1.400000e+000
    endloop
  endfacet
  facet normal -1.861226e-008 3.590492e-008 -1.000000e+000
    outer loop
      vertex   5.603582e+001 3.033093e+001 3.306540e-008
      vertex   0.000000e+000 -2.686831e-007 -1.301087e-008
      vertex   5.585093e+001 3.051582e+001 4.314484e-008
    endloop
  endfacet
  facet normal 1.000000e+000 -0.000000e+000 0.000000e+000
    outer loop
      vertex   1.000000e+002 1.744000e+001 1.400000e+000
      vertex   1.000000e+002 1.504000e+001 1.400000e+000
      vertex   1.000000e+002 -2.686831e-007 -1.301087e-008
    endloop
  endfacet
  facet normal 1.000000e+000 -0.000000e+000 0.000000e+000
    outer loop
      vertex   1.000000e+002 1.504000e+001 1.400000e+000
      vertex   1.000000e+002 -4.418285e-007 1.400000e+000
      vertex   1.000000e+002 -2.686831e-007 -1.301087e-008
    endloop
  endfacet
  facet normal -9.961945e-001 8.715844e-002 0.000000e+000
    outer loop
      vertex   5.848861e+001 3.134976e+001 7.000000e-001
      vertex   5.850000e+001 3.148000e+001 1.400000e+000
      vertex   5.850000e+001 3.148000e+001 2.524141e-009
    endloop
  endfacet
  facet normal -9.961945e-001 8.715781e-002 -1.187431e-007
    outer loop
      vertex   5.848861e+001 3.134976e+001 7.000000e-001
      vertex   5.850000e+001 3.148000e+001 2.524141e-009
      vertex   5.847721e+001 3.121953e+001 5.904793e-008
    endloop
  endfacet
  facet normal 9.961945e-001 8.715781e-002 -1.187431e-007
    outer loop
      vertex   5.551139e+001 3.134976e+001 7.000000e-001
      vertex   5.552279e+001 3.121953e+001 5.904793e-008
      vertex   5.550000e+001 3.148000e+001 2.524141e-009
    endloop
  endfacet
  facet normal 1.000000e+000 0.000000e+000 0.000000e+000
    outer loop
      vertex   5.550000e+001 3.198000e+001 7.000000e-001
      vertex   5.550000e+001 3.148000e+001 1.400000e+000
      vertex   5.550000e+001 3.148000e+001 2.524141e-009
    endloop
  endfacet
  facet normal 9.961945e-001 8.715844e-002 -0.000000e+000
    outer loop
      vertex   5.551139e+001 3.134976e+001 7.000000e-001
      vertex   5.550000e+001 3.148000e+001 2.524141e-009
      vertex   5.550000e+001 3.148000e+001 1.400000e+000
    endloop
  endfacet
  facet normal -1.000000e+000 0.000000e+000 0.000000e+000
    outer loop
      vertex   5.850000e+001 3.198000e+001 7.000000e-001
      vertex   5.850000e+001 3.148000e+001 2.524141e-009
      vertex   5.850000e+001 3.148000e+001 1.400000e+000
    endloop
  endfacet
  facet normal 2.588212e-001 9.659253e-001 0.000000e+000
    outer loop
      vertex   5.661325e+001 3.003662e+001 7.000001e-001
      vertex   5.673953e+001 3.000279e+001 1.400000e+000
      vertex   5.673953e+001 3.000279e+001 1.964244e-008
    endloop
  endfacet
  facet normal 2.588175e-001 9.659263e-001 -7.052217e-007
    outer loop
      vertex   5.661325e+001 3.003662e+001 7.000001e-001
      vertex   5.673953e+001 3.000279e+001 1.964244e-008
      vertex   5.648697e+001 3.007046e+001 8.958919e-008
    endloop
  endfacet
  facet normal 8.715971e-002 9.961944e-001 -0.000000e+000
    outer loop
      vertex   5.686976e+001 2.999139e+001 7.000000e-001
      vertex   5.673953e+001 3.000279e+001 1.964244e-008
      vertex   5.673953e+001 3.000279e+001 1.400000e+000
    endloop
  endfacet
  facet normal -8.715971e-002 9.961944e-001 0.000000e+000
    outer loop
      vertex   5.713024e+001 2.999139e+001 7.000000e-001
      vertex   5.726047e+001 3.000279e+001 1.400000e+000
      vertex   5.726047e+001 3.000279e+001 1.964244e-008
    endloop
  endfacet
  facet normal -2.588212e-001 9.659253e-001 0.000000e+000
    outer loop
      vertex   5.738675e+001 3.003662e+001 7.000001e-001
      vertex   5.726047e+001 3.000279e+001 1.964244e-008
      vertex   5.726047e+001 3.000279e+001 1.400000e+000
    endloop
  endfacet
  facet normal -2.588175e-001 9.659262e-001 -7.052217e-007
    outer loop
      vertex   5.738675e+001 3.003662e+001 7.000001e-001
      vertex   5.751303e+001 3.007046e+001 8.958919e-008
      vertex   5.726047e+001 3.000279e+001 1.964244e-008
    endloop
  endfacet
  facet normal 7.070922e-001 7.071213e-001 0.000000e+000
    outer loop
      vertex   5.594337e+001 3.042337e+001 7.000000e-001
      vertex   5.603582e+001 3.033093e+001 1.400000e+000
      vertex   5.603582e+001 3.033093e+001 3.306540e-008
    endloop
  endfacet
  facet normal -7.071031e-001 7.071105e-001 2.890065e-006
    outer loop
      vertex   5.805663e+001 3.042337e+001 7.000000e-001
      vertex   5.814907e+001 3.051582e+001 4.314484e-008
      vertex   5.796418e+001 3.033093e+001 3.306540e-008
    endloop
  endfacet
  facet normal -7.070922e-001 7.071213e-001 0.000000e+000
    outer loop
      vertex   5.805663e+001 3.042337e+001 7.000000e-001
      vertex   5.796418e+001 3.033093e+001 3.306540e-008
      vertex   5.796418e+001 3.033093e+001 1.400000e+000
    endloop
  endfacet
  facet normal -5.735779e-001 8.191510e-001 0.000000e+000
    outer loop
      vertex   5.785709e+001 3.025595e+001 7.000000e-001
      vertex   5.796418e+001 3.033093e+001 1.400000e+000
      vertex   5.796418e+001 3.033093e+001 3.306540e-008
    endloop
  endfacet
  facet normal 5.735779e-001 8.191510e-001 -0.000000e+000
    outer loop
      vertex   5.614291e+001 3.025595e+001 7.000000e-001
      vertex   5.603582e+001 3.033093e+001 3.306540e-008
      vertex   5.603582e+001 3.033093e+001 1.400000e+000
    endloop
  endfacet
  facet normal 7.071031e-001 7.071104e-001 2.890065e-006
    outer loop
      vertex   5.594337e+001 3.042337e+001 7.000000e-001
      vertex   5.603582e+001 3.033093e+001 3.306540e-008
      vertex   5.585093e+001 3.051582e+001 4.314484e-008
    endloop
  endfacet
  facet normal -8.191534e-001 5.735745e-001 -7.814331e-007
    outer loop
      vertex   5.822405e+001 3.062291e+001 7.000000e-001
      vertex   5.814907e+001 3.051582e+001 4.314484e-008
      vertex   5.814907e+001 3.051582e+001 1.400000e+000
    endloop
  endfacet
  facet normal -7.071178e-001 7.070959e-001 -9.633416e-007
    outer loop
      vertex   5.805663e+001 3.042337e+001 7.000000e-001
      vertex   5.814907e+001 3.051582e+001 1.400000e+000
      vertex   5.814907e+001 3.051582e+001 4.314484e-008
    endloop
  endfacet
  facet normal 7.071178e-001 7.070959e-001 -9.633416e-007
    outer loop
      vertex   5.594337e+001 3.042337e+001 7.000000e-001
      vertex   5.585093e+001 3.051582e+001 4.314484e-008
      vertex   5.585093e+001 3.051582e+001 1.400000e+000
    endloop
  endfacet
  facet normal 8.191534e-001 5.735745e-001 -7.814331e-007
    outer loop
      vertex   5.577595e+001 3.062291e+001 7.000000e-001
      vertex   5.585093e+001 3.051582e+001 1.400000e+000
      vertex   5.585093e+001 3.051582e+001 4.314484e-008
    endloop
  endfacet
  facet normal 9.659258e-001 2.588193e-001 -3.526133e-007
    outer loop
      vertex   5.555663e+001 3.109325e+001 7.000001e-001
      vertex   5.552279e+001 3.121953e+001 5.904793e-008
      vertex   5.552279e+001 3.121953e+001 1.400000e+000
    endloop
  endfacet
  facet normal -9.961945e-001 8.715781e-002 -1.187431e-007
    outer loop
      vertex   5.848861e+001 3.134976e+001 7.000000e-001
      vertex   5.847721e+001 3.121953e+001 5.904793e-008
      vertex   5.847721e+001 3.121953e+001 1.400000e+000
    endloop
  endfacet
  facet normal 9.961945e-001 8.715781e-002 -1.187431e-007
    outer loop
      vertex   5.551139e+001 3.134976e+001 7.000000e-001
      vertex   5.552279e+001 3.121953e+001 1.400000e+000
      vertex   5.552279e+001 3.121953e+001 5.904793e-008
    endloop
  endfacet
  facet normal -9.659258e-001 2.588193e-001 -3.526133e-007
    outer loop
      vertex   5.844337e+001 3.109325e+001 7.000001e-001
      vertex   5.847721e+001 3.121953e+001 1.400000e+000
      vertex   5.847721e+001 3.121953e+001 5.904793e-008
    endloop
  endfacet
  facet normal 4.226179e-001 9.063079e-001 0.000000e+000
    outer loop
      vertex   5.636848e+001 3.012571e+001 7.000000e-001
      vertex   5.648697e+001 3.007046e+001 1.400000e+000
      vertex   5.648697e+001 3.007046e+001 8.958919e-008
    endloop
  endfacet
  facet normal 2.588139e-001 9.659272e-001 -0.000000e+000
    outer loop
      vertex   5.661325e+001 3.003662e+001 7.000001e-001
      vertex   5.648697e+001 3.007046e+001 8.958919e-008
      vertex   5.648697e+001 3.007046e+001 1.400000e+000
    endloop
  endfacet
  facet normal -4.226179e-001 9.063079e-001 0.000000e+000
    outer loop
      vertex   5.763152e+001 3.012571e+001 7.000000e-001
      vertex   5.751303e+001 3.007046e+001 8.958919e-008
      vertex   5.751303e+001 3.007046e+001 1.400000e+000
    endloop
  endfacet
  facet normal -2.588139e-001 9.659272e-001 0.000000e+000
    outer loop
      vertex   5.738675e+001 3.003662e+001 7.000001e-001
      vertex   5.751303e+001 3.007046e+001 1.400000e+000
      vertex   5.751303e+001 3.007046e+001 8.958919e-008
    endloop
  endfacet
  facet normal -0.000000e+000 1.000000e+000 0.000000e+000
    outer loop
      vertex   2.775000e+001 3.248000e+001 6.999999e-001
      vertex   0.000000e+000 3.248000e+001 1.400000e+000
      vertex   5.550000e+001 3.248000e+001 1.400000e+000
    endloop
  endfacet
  facet normal -0.000000e+000 1.000000e+000 0.000000e+000
    outer loop
      vertex   7.925000e+001 3.248000e+001 6.999999e-001
      vertex   5.850000e+001 3.248000e+001 1.400000e+000
      vertex   1.000000e+002 3.248000e+001 1.400000e+000
    endloop
  endfacet
  facet normal 4.226179e-001 9.063079e-001 0.000000e+000
    outer loop
      vertex   5.636848e+001 3.012571e+001 7.000000e-001
      vertex   5.625000e+001 3.018096e+001 1.400000e+000
      vertex   5.648697e+001 3.007046e+001 1.400000e+000
    endloop
  endfacet
  facet normal -7.071068e-001 7.071068e-001 -3.853426e-006
    outer loop
      vertex   5.805663e+001 3.042337e+001 7.000000e-001
      vertex   5.796418e+001 3.033093e+001 1.400000e+000
      vertex   5.814907e+001 3.051582e+001 1.400000e+000
    endloop
  endfacet
  facet normal 9.961945e-001 8.715845e-002 0.000000e+000
    outer loop
      vertex   5.551139e+001 3.134976e+001 7.000000e-001
      vertex   5.550000e+001 3.148000e+001 1.400000e+000
      vertex   5.552279e+001 3.121953e+001 1.400000e+000
    endloop
  endfacet
  facet normal 2.842171e-016 -1.000000e+000 -8.022793e-007
    outer loop
      vertex   5.000000e+001 1.197668e-007 7.000000e-001
      vertex   1.000000e+002 -4.418285e-007 1.400000e+000
      vertex   0.000000e+000 -4.418286e-007 1.400000e+000
    endloop
  endfacet
  facet normal -9.961945e-001 8.715845e-002 0.000000e+000
    outer loop
      vertex   5.848861e+001 3.134976e+001 7.000000e-001
      vertex   5.847721e+001 3.121953e+001 1.400000e+000
      vertex   5.850000e+001 3.148000e+001 1.400000e+000
    endloop
  endfacet
  facet normal -4.226179e-001 9.063079e-001 0.000000e+000
    outer loop
      vertex   5.763152e+001 3.012571e+001 7.000000e-001
      vertex   5.751303e+001 3.007046e+001 1.400000e+000
      vertex   5.775000e+001 3.018096e+001 1.400000e+000
    endloop
  endfacet
  facet normal 7.071068e-001 7.071068e-001 -3.853426e-006
    outer loop
      vertex   5.594337e+001 3.042337e+001 7.000000e-001
      vertex   5.585093e+001 3.051582e+001 1.400000e+000
      vertex   5.603582e+001 3.033093e+001 1.400000e+000
    endloop
  endfacet
  facet normal -8.715845e-002 9.961945e-001 -2.374879e-007
    outer loop
      vertex   5.713024e+001 2.999139e+001 7.000000e-001
      vertex   5.700000e+001 2.998000e+001 1.400000e+000
      vertex   5.726047e+001 3.000279e+001 1.400000e+000
    endloop
  endfacet
  facet normal 8.715845e-002 9.961945e-001 -2.374879e-007
    outer loop
      vertex   5.686976e+001 2.999139e+001 7.000000e-001
      vertex   5.673953e+001 3.000279e+001 1.400000e+000
      vertex   5.700000e+001 2.998000e+001 1.400000e+000
    endloop
  endfacet
  facet normal 8.191510e-001 5.735779e-001 0.000000e+000
    outer loop
      vertex   5.577595e+001 3.062291e+001 7.000000e-001
      vertex   5.570096e+001 3.073000e+001 1.400000e+000
      vertex   5.585093e+001 3.051582e+001 1.400000e+000
    endloop
  endfacet
  facet normal 1.000000e+000 0.000000e+000 0.000000e+000
    outer loop
      vertex   5.550000e+001 3.198000e+001 7.000000e-001
      vertex   5.550000e+001 3.248000e+001 1.400000e+000
      vertex   5.550000e+001 3.148000e+001 1.400000e+000
    endloop
  endfacet
  facet normal -1.000000e+000 0.000000e+000 0.000000e+000
    outer loop
      vertex   5.850000e+001 3.198000e+001 7.000000e-001
      vertex   5.850000e+001 3.148000e+001 1.400000e+000
      vertex   5.850000e+001 3.248000e+001 1.400000e+000
    endloop
  endfacet
  facet normal -8.191510e-001 5.735779e-001 0.000000e+000
    outer loop
      vertex   5.822405e+001 3.062291e+001 7.000000e-001
      vertex   5.814907e+001 3.051582e+001 1.400000e+000
      vertex   5.829904e+001 3.073000e+001 1.400000e+000
    endloop
  endfacet
  facet normal 5.735779e-001 8.191510e-001 0.000000e+000
    outer loop
      vertex   5.614291e+001 3.025595e+001 7.000000e-001
      vertex   5.603582e+001 3.033093e+001 1.400000e+000
      vertex   5.625000e+001 3.018096e+001 1.400000e+000
    endloop
  endfacet
  facet normal -5.735779e-001 8.191510e-001 0.000000e+000
    outer loop
      vertex   5.785709e+001 3.025595e+001 7.000000e-001
      vertex   5.775000e+001 3.018096e+001 1.400000e+000
      vertex   5.796418e+001 3.033093e+001 1.400000e+000
    endloop
  endfacet
  facet normal 9.659258e-001 2.588193e-001 -3.526134e-007
    outer loop
      vertex   5.555663e+001 3.109325e+001 7.000001e-001
      vertex   5.552279e+001 3.121953e+001 1.400000e+000
      vertex   5.559046e+001 3.096697e+001 1.400000e+000
    endloop
  endfacet
  facet normal -9.063092e-001 4.226151e-001 3.045265e-006
    outer loop
      vertex   5.835429e+001 3.084849e+001 7.000001e-001
      vertex   5.829904e+001 3.073000e+001 1.400000e+000
      vertex   5.840954e+001 3.096697e+001 1.400000e+000
    endloop
  endfacet
  facet normal 9.063092e-001 4.226151e-001 3.045265e-006
    outer loop
      vertex   5.564571e+001 3.084849e+001 7.000001e-001
      vertex   5.559046e+001 3.096697e+001 1.400000e+000
      vertex   5.570096e+001 3.073000e+001 1.400000e+000
    endloop
  endfacet
  facet normal -2.588175e-001 9.659262e-001 7.052218e-007
    outer loop
      vertex   5.738675e+001 3.003662e+001 7.000001e-001
      vertex   5.726047e+001 3.000279e+001 1.400000e+000
      vertex   5.751303e+001 3.007046e+001 1.400000e+000
    endloop
  endfacet
  facet normal -9.659258e-001 2.588193e-001 -3.526134e-007
    outer loop
      vertex   5.844337e+001 3.109325e+001 7.000001e-001
      vertex   5.840954e+001 3.096697e+001 1.400000e+000
      vertex   5.847721e+001 3.121953e+001 1.400000e+000
    endloop
  endfacet
  facet normal 2.588175e-001 9.659262e-001 7.052218e-007
    outer loop
      vertex   5.661325e+001 3.003662e+001 7.000001e-001
      vertex   5.648697e+001 3.007046e+001 1.400000e+000
      vertex   5.673953e+001 3.000279e+001 1.400000e+000
    endloop
  endfacet
  facet normal 4.505494e-024 -1.585230e-008 1.000000e+000
    outer loop
      vertex   5.000000e+001 7.520000e+000 1.400000e+000
      vertex   0.000000e+000 -4.418286e-007 1.400000e+000
      vertex   1.000000e+002 -4.418285e-007 1.400000e+000
    endloop
  endfacet
  facet normal 1.192093e-009 -7.926150e-009 1.000000e+000
    outer loop
      vertex   5.000000e+001 7.520000e+000 1.400000e+000
      vertex   1.000000e+002 -4.418285e-007 1.400000e+000
      vertex   1.000000e+002 1.504000e+001 1.400000e+000
    endloop
  endfacet
  facet normal -1.192093e-009 -7.926150e-009 1.000000e+000
    outer loop
      vertex   5.000000e+001 7.520000e+000 1.400000e+000
      vertex   0.000000e+000 1.504000e+001 1.400000e+000
      vertex   0.000000e+000 -4.418286e-007 1.400000e+000
    endloop
  endfacet
  facet normal 1.000000e+000 0.000000e+000 0.000000e+000
    outer loop
      vertex   1.000000e+002 1.504000e+001 5.400000e+000
      vertex   1.000000e+002 1.504000e+001 1.400000e+000
      vertex   1.000000e+002 1.744000e+001 1.400000e+000
    endloop
  endfacet
  facet normal 0.000000e+000 1.000000e+000 0.000000e+000
    outer loop
      vertex   5.000000e+001 1.744000e+001 3.400000e+000
      vertex   0.000000e+000 1.744000e+001 1.400000e+000
      vertex   0.000000e+000 1.744000e+001 5.400000e+000
    endloop
  endfacet
  facet normal 0.000000e+000 1.000000e+000 0.000000e+000
    outer loop
      vertex   5.000000e+001 1.744000e+001 3.400000e+000
      vertex   1.000000e+002 1.744000e+001 1.400000e+000
      vertex   0.000000e+000 1.744000e+001 1.400000e+000
    endloop
  endfacet
  facet normal 0.000000e+000 -1.000000e+000 0.000000e+000
    outer loop
      vertex   5.000000e+001 1.504000e+001 3.400000e+000
      vertex   0.000000e+000 1.504000e+001 5.400000e+000
      vertex   0.000000e+000 1.504000e+001 1.400000e+000
    endloop
  endfacet
  facet normal 1.000000e+000 -0.000000e+000 0.000000e+000
    outer loop
      vertex   1.000000e+002 1.744000e+001 5.400000e+000
      vertex   1.000000e+002 1.504000e+001 5.400000e+000
      vertex   1.000000e+002 1.744000e+001 1.400000e+000
    endloop
  endfacet
  facet normal 0.000000e+000 -1.000000e+000 0.000000e+000
    outer loop
      vertex   5.000000e+001 1.504000e+001 3.400000e+000
      vertex   0.000000e+000 1.504000e+001 1.400000e+000
      vertex   1.000000e+002 1.504000e+001 1.400000e+000
    endloop
  endfacet
  facet normal 0.000000e+000 1.000000e+000 0.000000e+000
    outer loop
      vertex   5.000000e+001 1.744000e+001 3.400000e+000
      vertex   1.000000e+002 1.744000e+001 5.400000e+000
      vertex   1.000000e+002 1.744000e+001 1.400000e+000
    endloop
  endfacet
  facet normal -1.000000e+000 0.000000e+000 0.000000e+000
    outer loop
      vertex   0.000000e+000 1.504000e+001 5.400000e+000
      vertex   0.000000e+000 1.744000e+001 1.400000e+000
      vertex   0.000000e+000 1.504000e+001 1.400000e+000
    endloop
  endfacet
  facet normal -1.000000e+000 0.000000e+000 0.000000e+000
    outer loop
      vertex   0.000000e+000 1.744000e+001 5.400000e+000
      vertex   0.000000e+000 1.744000e+001 1.400000e+000
      vertex   0.000000e+000 1.504000e+001 5.400000e+000
    endloop
  endfacet
  facet normal 0.000000e+000 0.000000e+000 1.000000e+000
    outer loop
      vertex   5.000000e+001 7.520000e+000 1.400000e+000
      vertex   1.000000e+002 1.504000e+001 1.400000e+000
      vertex   0.000000e+000 1.504000e+001 1.400000e+000
    endloop
  endfacet
  facet normal 2.006830e-008 5.706366e-007 1.000000e+000
    outer loop
      vertex   5.570096e+001 3.073000e+001 1.400000e+000
      vertex   0.000000e+000 3.248000e+001 1.400000e+000
      vertex   5.585093e+001 3.051582e+001 1.400000e+000
    endloop
  endfacet
  facet normal 1.823395e-009 -7.926150e-009 1.000000e+000
    outer loop
      vertex   5.603582e+001 3.033093e+001 1.400000e+000
      vertex   0.000000e+000 3.248000e+001 1.400000e+000
      vertex   0.000000e+000 1.744000e+001 1.400000e+000
    endloop
  endfacet
  facet normal -2.350191e-008 -6.682705e-007 1.000000e+000
    outer loop
      vertex   5.585093e+001 3.051582e+001 1.400000e+000
      vertex   0.000000e+000 3.248000e+001 1.400000e+000
      vertex   5.603582e+001 3.033093e+001 1.400000e+000
    endloop
  endfacet
  facet normal 0.000000e+000 0.000000e+000 1.000000e+000
    outer loop
      vertex   5.625000e+001 3.018096e+001 1.400000e+000
      vertex   5.603582e+001 3.033093e+001 1.400000e+000
      vertex   0.000000e+000 1.744000e+001 1.400000e+000
    endloop
  endfacet
  facet normal 0.000000e+000 -7.926150e-009 1.000000e+000
    outer loop
      vertex   1.000000e+002 3.248000e+001 1.400000e+000
      vertex   5.850000e+001 3.248000e+001 1.400000e+000
      vertex   1.000000e+002 1.744000e+001 1.400000e+000
    endloop
  endfacet
  facet normal -1.644683e-007 7.261101e-007 1.000000e+000
    outer loop
      vertex   5.648697e+001 3.007046e+001 1.400000e+000
      vertex   5.625000e+001 3.018096e+001 1.400000e+000
      vertex   0.000000e+000 1.744000e+001 1.400000e+000
    endloop
  endfacet
  facet normal -1.386785e-008 -5.095212e-007 1.000000e+000
    outer loop
      vertex   5.559046e+001 3.096697e+001 1.400000e+000
      vertex   0.000000e+000 3.248000e+001 1.400000e+000
      vertex   5.570096e+001 3.073000e+001 1.400000e+000
    endloop
  endfacet
  facet normal -1.150394e-009 -4.293355e-009 1.000000e+000
    outer loop
      vertex   5.673953e+001 3.000279e+001 1.400000e+000
      vertex   5.648697e+001 3.007046e+001 1.400000e+000
      vertex   0.000000e+000 1.744000e+001 1.400000e+000
    endloop
  endfacet
  facet normal 0.000000e+000 -1.000000e+000 0.000000e+000
    outer loop
      vertex   5.000000e+001 1.504000e+001 3.400000e+000
      vertex   1.000000e+002 1.504000e+001 1.400000e+000
      vertex   1.000000e+002 1.504000e+001 5.400000e+000
    endloop
  endfacet
  facet normal 3.274461e-007 -1.488392e-006 1.000000e+000
    outer loop
      vertex   5.700000e+001 2.998000e+001 1.400000e+000
      vertex   5.673953e+001 3.000279e+001 1.400000e+000
      vertex   0.000000e+000 1.744000e+001 1.400000e+000
    endloop
  endfacet
  facet normal 1.041059e-008 4.585784e-007 1.000000e+000
    outer loop
      vertex   5.550000e+001 3.148000e+001 1.400000e+000
      vertex   0.000000e+000 3.248000e+001 1.400000e+000
      vertex   5.552279e+001 3.121953e+001 1.400000e+000
    endloop
  endfacet
  facet normal -7.598516e-007 3.453871e-006 1.000000e+000
    outer loop
      vertex   5.726047e+001 3.000279e+001 1.400000e+000
      vertex   5.700000e+001 2.998000e+001 1.400000e+000
      vertex   0.000000e+000 1.744000e+001 1.400000e+000
    endloop
  endfacet
  facet normal 0.000000e+000 -1.192093e-007 1.000000e+000
    outer loop
      vertex   5.550000e+001 3.248000e+001 1.400000e+000
      vertex   0.000000e+000 3.248000e+001 1.400000e+000
      vertex   5.550000e+001 3.148000e+001 1.400000e+000
    endloop
  endfacet
  facet normal -4.033008e-008 -1.192093e-007 1.000000e+000
    outer loop
      vertex   1.000000e+002 1.744000e+001 1.400000e+000
      vertex   5.850000e+001 3.248000e+001 1.400000e+000
      vertex   5.850000e+001 3.148000e+001 1.400000e+000
    endloop
  endfacet
  facet normal 1.503837e-007 4.445103e-007 1.000000e+000
    outer loop
      vertex   1.000000e+002 1.744000e+001 1.400000e+000
      vertex   5.850000e+001 3.148000e+001 1.400000e+000
      vertex   5.847721e+001 3.121953e+001 1.400000e+000
    endloop
  endfacet
  facet normal 2.636498e-009 -7.064485e-010 1.000000e+000
    outer loop
      vertex   1.000000e+002 1.744000e+001 1.400000e+000
      vertex   5.847721e+001 3.121953e+001 1.400000e+000
      vertex   5.840954e+001 3.096697e+001 1.400000e+000
    endloop
  endfacet
  facet normal -1.395794e-007 -4.379682e-007 1.000000e+000
    outer loop
      vertex   1.000000e+002 1.744000e+001 1.400000e+000
      vertex   5.840954e+001 3.096697e+001 1.400000e+000
      vertex   5.829904e+001 3.073000e+001 1.400000e+000
    endloop
  endfacet
  facet normal 1.450202e-007 4.550400e-007 1.000000e+000
    outer loop
      vertex   1.000000e+002 1.744000e+001 1.400000e+000
      vertex   5.829904e+001 3.073000e+001 1.400000e+000
      vertex   5.814907e+001 3.051582e+001 1.400000e+000
    endloop
  endfacet
  facet normal -1.513228e-007 -4.934458e-007 1.000000e+000
    outer loop
      vertex   1.000000e+002 1.744000e+001 1.400000e+000
      vertex   5.814907e+001 3.051582e+001 1.400000e+000
      vertex   5.796418e+001 3.033093e+001 1.400000e+000
    endloop
  endfacet
  facet normal 0.000000e+000 0.000000e+000 1.000000e+000
    outer loop
      vertex   1.000000e+002 1.744000e+001 1.400000e+000
      vertex   5.796418e+001 3.033093e+001 1.400000e+000
      vertex   5.775000e+001 3.018096e+001 1.400000e+000
    endloop
  endfacet
  facet normal 1.975638e-007 6.551365e-007 1.000000e+000
    outer loop
      vertex   1.000000e+002 1.744000e+001 1.400000e+000
      vertex   5.775000e+001 3.018096e+001 1.400000e+000
      vertex   5.751303e+001 3.007046e+001 1.400000e+000
    endloop
  endfacet
  facet normal 1.330093e-009 -4.964006e-009 1.000000e+000
    outer loop
      vertex   1.000000e+002 1.744000e+001 1.400000e+000
      vertex   5.751303e+001 3.007046e+001 1.400000e+000
      vertex   5.726047e+001 3.000279e+001 1.400000e+000
    endloop
  endfacet
  facet normal 0.000000e+000 -9.489079e-009 1.000000e+000
    outer loop
      vertex   1.000000e+002 1.744000e+001 1.400000e+000
      vertex   5.726047e+001 3.000279e+001 1.400000e+000
      vertex   0.000000e+000 1.744000e+001 1.400000e+000
    endloop
  endfacet
  facet normal 0.000000e+000 0.000000e+000 1.000000e+000
    outer loop
      vertex   5.552279e+001 3.121953e+001 1.400000e+000
      vertex   0.000000e+000 3.248000e+001 1.400000e+000
      vertex   5.559046e+001 3.096697e+001 1.400000e+000
    endloop
  endfacet
  facet normal -0.000000e+000 1.000000e+000 0.000000e+000
    outer loop
      vertex   5.000000e+001 1.744000e+001 3.400000e+000
      vertex   0.000000e+000 1.744000e+001 5.400000e+000
      vertex   1.000000e+002 1.744000e+001 5.400000e+000
    endloop
  endfacet
  facet normal -0.000000e+000 -1.000000e+000 0.000000e+000
    outer loop
      vertex   5.000000e+001 1.504000e+001 3.400000e+000
      vertex   1.000000e+002 1.504000e+001 5.400000e+000
      vertex   0.000000e+000 1.504000e+001 5.400000e+000
    endloop
  endfacet
  facet normal 0.000000e+000 0.000000e+000 1.000000e+000
    outer loop
      vertex   5.000000e+001 1.624000e+001 5.400000e+000
      vertex   1.000000e+002 1.744000e+001 5.400000e+000
      vertex   0.000000e+000 1.744000e+001 5.400000e+000
    endloop
  endfacet
  facet normal 0.000000e+000 0.000000e+000 1.000000e+000
    outer loop
      vertex   5.000000e+001 1.624000e+001 5.400000e+000
      vertex   0.000000e+000 1.504000e+001 5.400000e+000
      vertex   1.000000e+002 1.504000e+001 5.400000e+000
    endloop
  endfacet
  facet normal 0.000000e+000 0.000000e+000 1.000000e+000
    outer loop
      vertex   5.000000e+001 1.624000e+001 5.400000e+000
      vertex   0.000000e+000 1.744000e+001 5.400000e+000
      vertex   0.000000e+000 1.504000e+001 5.400000e+000
    endloop
  endfacet
  facet normal 0.000000e+000 -0.000000e+000 1.000000e+000
    outer loop
      vertex   5.000000e+001 1.624000e+001 5.400000e+000
      vertex   1.000000e+002 1.504000e+001 5.400000e+000
      vertex   1.000000e+002 1.744000e+001 5.400000e+000
    endloop
  endfacet
endsolid
